<?xml version="1.0" encoding="UTF-8" standalone="no"?>
<!-- Created with Inkscape (http://www.inkscape.org/) -->

<svg
   width="36.644791mm"
   height="38.287327mm"
   viewBox="0 0 36.644791 38.287327"
   version="1.1"
   id="svg1"
   xml:space="preserve"
   xmlns="http://www.w3.org/2000/svg"
   xmlns:svg="http://www.w3.org/2000/svg"><defs
     id="defs1" /><g
     id="layer1"
     transform="translate(-87.842157,-123.61107)"><path
       style="fill:#1baa8d;fill-opacity:1"
       d="m 103.45257,161.78922 c -2.35951,-0.49247 -4.281251,-2.02892 -5.395051,-4.31339 -0.70328,-1.44248 -1.21953,-3.60379 -1.21953,-5.10564 0,-0.80145 -0.0963,-0.88958 -1.55147,-1.42017 -3.50816,-1.27914 -6.06934,-5.03122 -6.07376,-8.89792 -6.6e-4,-0.58208 -0.30932,-2.89967 -0.6859,-5.15021 -0.37659,-2.25053 -0.6847,-4.43937 -0.6847,-4.86409 0,-1.37237 0.59817,-2.82189 1.66436,-4.03314 1.13487,-1.28928 1.93695,-1.78892 3.36272,-2.09475 0.50932,-0.10925 1.20999,-0.42125 1.55703,-0.69333 1.74951,-1.37158 4.11023,0.4396 3.3057,2.53617 -0.24041,0.62649 -1.64368,1.2709 -2.37036,1.08852 -0.3441,-0.0864 -0.85764,-0.40606 -1.1412,-0.71042 -0.4639,-0.49794 -0.6122,-0.5215 -1.48,-0.2351 -1.33949,0.44208 -2.71368,1.88983 -2.94826,3.1061 -0.21887,1.13482 1.25368,10.60566 1.69229,10.88413 0.14391,0.0914 0.35018,0.70191 0.45837,1.35675 0.71057,4.30091 4.16704,6.64454 8.163121,5.53494 2.24759,-0.62409 4.14039,-3.54373 4.14039,-6.38652 v -1.28649 l -2.1736,0.0768 -2.173601,0.0768 -0.23393,0.99219 c -0.21365,0.90616 -0.31195,0.99219 -1.13369,0.99219 -0.63722,0 -0.89976,-0.11995 -0.89976,-0.41108 0,-0.2261 0.78418,-2.87524 1.74262,-5.88698 0.958441,-3.01175 1.784631,-6.03764 1.835961,-6.72421 0.19004,-2.54158 1.82255,-4.98789 4.0313,-6.04088 0.97552,-0.46506 1.67957,-0.5905 3.17334,-0.56537 1.05583,0.0178 2.14933,0.15519 2.43,0.3054 0.28068,0.15022 1.02417,0.27428 1.6522,0.2757 1.50085,0.003 3.57661,0.99168 4.64952,2.21366 0.47189,0.53744 0.85797,1.07325 0.85797,1.19067 0,0.11742 0.47089,0.35458 1.04641,0.52701 2.09817,0.62862 3.71609,2.71103 3.71609,4.78292 0,0.68866 0.30387,1.6447 0.8599,2.70545 0.76345,1.45644 0.8599,1.87977 0.8599,3.77418 0,1.70078 -0.1208,2.36356 -0.59532,3.26636 -0.3501,0.6661 -0.59531,1.60237 -0.59531,2.27306 0,1.66888 -0.60627,3.41177 -1.70966,4.91489 -0.5348,0.72855 -1.32796,2.03624 -1.76258,2.906 -0.51022,1.02104 -1.17853,1.86693 -1.88611,2.38729 -1.25509,0.923 -1.57725,0.97959 -2.08373,0.36603 -0.30986,-0.37537 -0.3049,-0.45833 0.0337,-0.56549 0.87939,-0.27827 2.6417,-2.44804 2.93527,-3.61393 0.18822,-0.74748 0.53703,-1.33545 0.95453,-1.60901 1.01024,-0.66194 1.9995,-3.08567 2.06828,-5.06743 0.0376,-1.08459 0.20529,-1.84559 0.47134,-2.13957 1.4106,-1.55869 1.28185,-5.03448 -0.24771,-6.68748 -0.49183,-0.53152 -0.62546,-0.97187 -0.62546,-2.06106 0,-2.36956 -1.15133,-3.89989 -3.30729,-4.39602 -0.55523,-0.12777 -1.03227,-0.55436 -1.5875,-1.41961 -0.51878,-0.80844 -1.20273,-1.44319 -1.9743,-1.83227 -1.75553,-0.88527 -2.12675,-0.80759 -2.12675,0.445 0,0.84631 0.14331,1.14236 0.76845,1.5875 0.42265,0.30095 1.01796,0.54719 1.32292,0.54719 0.75543,0 1.6128,0.91425 1.6128,1.71979 0,1.48678 -2.05114,2.28629 -3.0458,1.18721 -0.26509,-0.29292 -0.48198,-0.89731 -0.48198,-1.34309 0,-0.60764 -0.22074,-0.97887 -0.88194,-1.4832 -0.76107,-0.58049 -0.88194,-0.83029 -0.88194,-1.8226 0,-1.48947 -0.52446,-1.78758 -2.90794,-1.6529 -1.34399,0.0759 -2.01727,0.26105 -2.74792,0.7555 -0.99626,0.6742 -2.28164,2.82495 -2.28164,3.81774 0,0.29997 0.84428,3.16386 1.87617,6.3642 2.09263,6.49009 2.1428,7.00715 0.94316,9.71975 -1.14334,2.5853 -3.59698,4.73269 -6.096701,5.33575 -0.75646,0.1825 -0.76228,0.19879 -0.60414,1.6915 0.56707,5.35293 4.299991,8.23084 8.313281,6.40914 1.23656,-0.5613 1.25688,-0.60669 0.82541,-1.84441 -0.67352,-1.93205 1.10668,-4.24813 3.26523,-4.24813 2.13847,0 3.38383,1.31116 3.38383,3.56262 0,1.00607 -0.15115,1.37261 -0.90556,2.19595 -0.84676,0.92412 -1.00918,0.98981 -2.50093,1.01158 -0.87745,0.0128 -1.74987,0.14723 -1.9387,0.29871 -1.43658,1.15242 -4.20281,1.80522 -6.03189,1.42346 z m 9.12165,-3.82467 c 0.57352,-0.41936 0.65937,-1.7914 0.15047,-2.4046 -0.65966,-0.79483 -2.2912,-0.44847 -2.67784,0.56848 -0.58136,1.52908 1.18868,2.815 2.52737,1.83612 z m -8.86244,-19.28588 c -0.003,-0.0364 -0.34296,-1.13771 -0.75556,-2.4474 l -0.7502,-2.38125 -0.69964,2.28722 c -0.3848,1.25797 -0.69964,2.3593 -0.69964,2.4474 0,0.0881 0.65484,0.16017 1.45521,0.16017 0.80036,0 1.45279,-0.0298 1.44983,-0.0661 z m 11.11787,-8.26823 c 0,-0.21828 -0.17859,-0.39688 -0.39687,-0.39688 -0.21828,0 -0.39688,0.1786 -0.39688,0.39688 0,0.21828 0.1786,0.39687 0.39688,0.39687 0.21828,0 0.39687,-0.17859 0.39687,-0.39687 z m -0.67348,21.17869 c -0.35719,-0.35719 -0.64943,-0.95791 -0.64943,-1.33494 0,-0.86479 1.09626,-1.98438 1.94304,-1.98438 1.069,0 1.86696,0.84814 1.86696,1.98438 0,1.81826 -1.88224,2.61327 -3.16057,1.33494 z m 1.94677,-1.27264 c 0.1053,-0.54678 -0.6585,-0.91522 -1.06162,-0.51209 -0.40312,0.40312 -0.0347,1.16692 0.5121,1.06162 0.25343,-0.0488 0.50072,-0.29609 0.54952,-0.54953 z m -6.89879,-0.86491 -1.25366,-1.72864 v -7.33584 c 0,-7.04929 -0.0207,-7.34874 -0.52917,-7.6663 -0.70291,-0.43898 -0.73106,-2.17792 -0.0453,-2.79852 0.76254,-0.69009 2.0283,-0.55901 2.6869,0.27827 0.60613,0.77058 0.55018,1.70385 -0.14866,2.47968 -0.23952,0.26591 -0.37626,1.0111 -0.37626,2.05052 0,2.06711 0.36529,2.12273 2.0352,0.3099 1.14746,-1.24567 1.2952,-1.32292 2.53008,-1.32292 1.01287,0 1.49043,-0.1506 2.09755,-0.66146 0.90965,-0.76542 1.45259,-0.82501 2.27413,-0.24958 0.41407,0.29002 0.58804,0.68141 0.58804,1.32292 0,1.71104 -1.76579,2.58483 -2.91042,1.4402 -0.34895,-0.34895 -0.88194,-0.52916 -1.56501,-0.52916 -0.89808,0 -1.17714,0.16051 -2.09815,1.20684 -0.6619,0.75195 -1.41833,1.30514 -2.00686,1.46764 l -0.94456,0.26081 v 4.67242 4.67242 l 1.05833,1.50876 c 1.17049,1.66865 1.25398,1.95442 0.63982,2.19009 -0.68529,0.26297 -0.72796,0.23004 -2.03199,-1.56805 z m 8.66821,-15.20468 c 0,-0.2143 -0.20836,-0.42976 -0.46302,-0.4788 -0.32487,-0.0626 -0.46302,0.0803 -0.46302,0.4788 0,0.3985 0.13815,0.54136 0.46302,0.47879 0.25466,-0.049 0.46302,-0.2645 0.46302,-0.47879 z m -8.66502,-2.84414 c 0.14466,-0.43447 -0.68434,-0.74462 -1.03992,-0.38905 -0.15216,0.15216 -0.19259,0.41269 -0.0898,0.57895 0.23377,0.37825 0.98248,0.2524 1.12975,-0.1899 z m 7.4744,14.75039 c -0.4024,-0.4024 -0.88195,-0.52917 -2.00177,-0.52917 -1.54923,0 -2.24403,-0.24517 -3.22375,-1.13752 -0.47148,-0.42943 -0.59322,-0.82157 -0.58523,-1.88516 0.009,-1.2365 0.1128,-1.45305 1.30595,-2.73201 l 1.29586,-1.38906 h 1.89347 c 1.49283,0 2.0358,-0.11197 2.56619,-0.52917 0.80909,-0.63643 1.34656,-0.66602 2.12999,-0.11729 0.78697,0.55122 0.8367,2.34685 0.0763,2.75382 -0.74712,0.39984 -2.01885,0.33464 -2.39865,-0.12299 -0.23264,-0.28031 -0.84857,-0.39687 -2.09716,-0.39687 -1.65231,0 -1.82302,0.057 -2.61344,0.87249 -0.95843,0.98885 -1.0953,1.99456 -0.36179,2.65838 0.64629,0.58489 3.53816,0.61443 4.01406,0.041 0.45925,-0.55336 1.94018,-0.50126 2.47253,0.087 0.5812,0.64222 0.55692,1.97224 -0.046,2.51785 -0.65631,0.59396 -1.78373,0.55154 -2.42656,-0.0913 z m 1.73807,-1.08792 c 0.19946,-0.32272 -0.39477,-0.80799 -0.73325,-0.5988 -0.11609,0.0717 -0.21107,0.30201 -0.21107,0.51171 0,0.44897 0.6818,0.51186 0.94432,0.0871 z m 1.0543,-5.54972 c 0.27266,-0.44117 -0.34057,-0.94708 -0.70557,-0.58208 -0.30531,0.3053 -0.11422,0.86972 0.29445,0.86972 0.12834,0 0.31335,-0.12944 0.41112,-0.28764 z"
       id="path2" /></g></svg>
