<?xml version="1.0" encoding="UTF-8" standalone="no"?>
<!-- Created with Inkscape (http://www.inkscape.org/) -->

<svg
   width="114.77891mm"
   height="98.352783mm"
   viewBox="0 0 114.77891 98.352783"
   version="1.1"
   id="svg1"
   xml:space="preserve"
   xmlns="http://www.w3.org/2000/svg"
   xmlns:svg="http://www.w3.org/2000/svg"><defs
     id="defs1" /><g
     id="layer1"
     transform="translate(-76.845422,-33.321449)"><path
       style="fill:#008080;fill-opacity:1"
       d="m 143.63584,130.56681 c 0.28643,-2.0897 -1.22478,-2.34282 -3.52076,-0.58971 -0.93739,0.71575 -1.46997,0.9307 -2.30597,0.9307 -0.97452,0 -1.32671,-0.2081 -3.40154,-2.00988 -1.57083,-1.36411 -2.31448,-2.19296 -2.3145,-2.57969 -5e-5,-0.83018 -1.58362,-5.72815 -2.30243,-7.1214 -0.20736,-0.40193 -0.30253,-0.96546 -0.21149,-1.2523 0.12606,-0.39719 -0.19096,-0.86958 -1.32957,-1.98122 -0.8223,-0.80282 -1.59557,-1.45968 -1.71837,-1.45968 -0.1228,0 -0.29489,-0.22563 -0.38242,-0.50141 -0.10143,-0.31957 -0.51506,-0.56818 -1.14051,-0.68552 l -0.98137,-0.1841 2.31331,-2.17697 c 2.34502,-2.20682 2.6509,-2.68906 1.89065,-2.98079 -0.23246,-0.0892 -0.64495,-0.68078 -0.91664,-1.31461 -0.34869,-0.81346 -0.65023,-1.15243 -1.02516,-1.15243 -0.42,0 -0.62193,-0.31844 -0.96474,-1.52135 -0.23846,-0.83675 -0.53944,-1.63447 -0.66885,-1.77271 -0.12941,-0.13825 -0.23529,-0.69819 -0.23529,-1.24432 0,-0.54614 -0.13189,-1.282441 -0.29309,-1.636231 -0.2016,-0.44246 -0.22003,-1.2949 -0.059,-2.73089 0.13198,-1.17732 0.13488,-2.58896 0.007,-3.23734 -0.21978,-1.11137 -0.19517,-1.17625 0.73807,-1.9455 0.88651,-0.73074 0.9516,-0.87773 0.79611,-1.79807 -0.15147,-0.8965 -0.0663,-1.11631 0.80703,-2.08299 0.68918,-0.76284 0.93406,-1.2425 0.83254,-1.63073 -0.10801,-0.41303 -0.0444,-0.51185 0.25538,-0.39681 0.21957,0.0843 0.70357,0.15319 1.07557,0.15319 0.67412,0 0.67577,0.006 0.50016,1.71979 -0.16822,1.64192 -0.15023,1.71979 0.39731,1.71979 0.31543,0 0.7057,0.17041 0.86727,0.37869 0.25356,0.32688 0.54829,0.31426 2.15457,-0.0923 2.13006,-0.53909 2.70468,-0.80694 3.41505,-1.59189 l 0.50745,-0.56073 0.34873,0.8294 c 0.26796,0.63728 0.45616,0.78455 0.81251,0.63578 0.25507,-0.10649 0.82068,-0.27301 1.2569,-0.37004 0.60159,-0.13382 0.95768,-0.48772 1.47453,-1.46546 1.0507,-1.98765 2.79936,-2.3076 2.13084,-0.38988 -0.41098,1.17891 -0.37207,1.97051 0.11677,2.37621 0.34315,0.28479 0.5431,0.26765 1.1653,-0.0999 0.41309,-0.24402 1.01448,-0.44367 1.33642,-0.44367 0.46207,0 0.55513,0.11559 0.44184,0.5488 -0.0888,0.33955 0.0485,0.7408 0.36001,1.05234 0.27694,0.27694 0.43338,0.68634 0.34764,0.90977 -0.0857,0.22344 -0.013,0.57842 0.16164,0.78885 0.26031,0.31365 0.19411,0.41358 -0.36727,0.55448 -0.82668,0.20748 -0.84526,0.47828 -0.14191,2.0683 0.29859,0.67502 0.4581,1.37477 0.35445,1.55499 -0.10364,0.18023 -0.0938,0.24219 0.0219,0.1377 0.11569,-0.1045 0.5607,0.33893 0.98889,0.98539 0.72267,1.09103 1.81266,1.71067 3.01971,1.71666 0.16371,8.1e-4 0.37207,0.37354 0.46302,0.8283 0.27009,1.350451 0.21888,1.491271 -0.49281,1.355231 -0.94875,-0.18137 -1.1151,0.53457 -0.35973,1.54831 0.86194,1.15677 2.57464,2.88013 3.70507,3.72812 l 0.94863,0.71161 -0.13407,1.87384 c -0.12769,1.78457 -0.0915,1.93975 0.75935,3.25714 0.77856,1.20544 0.89069,1.59235 0.8721,3.0092 l -0.0213,1.62591 0.94981,0.15712 c 0.5224,0.0864 1.8279,0.15843 2.90111,0.16003 l 1.9513,0.003 -0.16536,0.82683 c -0.0909,0.45475 -0.16536,0.94489 -0.16536,1.08919 0,0.1443 -0.2186,0.2052 -0.48576,0.13534 -0.27284,-0.0713 -0.97279,0.20506 -1.59687,0.6306 -0.61112,0.41669 -1.33727,0.75763 -1.61369,0.75763 -1.28814,0 -1.78182,0.44665 -1.9281,1.74446 -0.11755,1.04292 -0.32602,1.42659 -1.22734,2.25885 -0.9137,0.84368 -1.08574,0.92037 -1.08574,0.48399 0,-0.28521 -0.0893,-0.51777 -0.19844,-0.51681 -0.37092,0.003 -1.68118,0.97815 -2.0801,1.54769 -0.21852,0.31198 -0.65844,0.56446 -0.97761,0.56107 -0.31917,-0.003 -1.26185,0.32336 -2.09484,0.72611 -1.12132,0.54215 -1.553,0.90739 -1.66268,1.40677 -0.0953,0.43396 -0.42965,0.78076 -0.93749,0.97245 -0.51518,0.19446 -0.92683,0.62697 -1.18515,1.24522 -0.54468,1.30361 -0.94297,1.20435 -0.75221,-0.18746 z m 20.18726,-25.45589 c -1.69628,-1.75681 -2.40333,-2.07038 -2.85371,-1.2656 -0.22152,0.39584 -0.33841,0.40911 -0.9098,0.10331 -0.65858,-0.35246 -2.53982,-0.30716 -3.41313,0.0822 -0.3499,0.15599 -0.53799,-0.0106 -0.8471,-0.75043 -0.49582,-1.18667 -1.33866,-1.52923 -3.21885,-1.30825 l -1.4374,0.16894 v -1.60503 c 0,-1.825891 -0.39575,-2.436571 -1.57899,-2.436571 -1.17583,0 -2.28604,-1.4272 -3.55036,-4.56407 -0.37895,-0.9402 -0.37338,-0.99218 0.10645,-0.99218 0.55754,0 1.20533,-0.93367 0.81512,-1.17484 -0.13226,-0.0817 -0.18478,-0.36153 -0.11673,-0.62177 0.0698,-0.26707 -0.11198,-0.68648 -0.41743,-0.96291 -0.37655,-0.34077 -0.49351,-0.67968 -0.38448,-1.11408 0.14722,-0.58654 0.0849,-0.62432 -1.03021,-0.62432 -0.72836,0 -1.31323,0.1522 -1.51387,0.39396 -0.57678,0.69497 -0.82716,0.13155 -0.74448,-1.67528 0.0804,-1.75631 0.0785,-1.76163 -0.663,-1.84665 -0.94372,-0.10821 -1.38761,0.26736 -2.19191,1.85458 -0.39444,0.77838 -0.82354,1.27479 -1.10384,1.277 -0.25221,0.002 -0.72646,0.0754 -1.05388,0.16315 -0.41356,0.11083 -0.59531,0.0444 -0.59531,-0.21762 0,-0.20744 -0.15106,-0.58375 -0.33568,-0.83623 -0.30935,-0.42307 -0.42078,-0.38622 -1.42109,0.47001 -0.72176,0.6178 -1.47361,0.98844 -2.24402,1.10623 -0.63722,0.0974 -1.37685,0.28938 -1.64362,0.42655 -0.34652,0.17817 -0.61691,0.13004 -0.94687,-0.16857 -0.25402,-0.22988 -0.65788,-0.41796 -0.89749,-0.41796 -0.3583,0 -0.38983,-0.12048 -0.1776,-0.67869 0.6585,-1.73199 0.12023,-2.7609 -1.44436,-2.7609 -0.37337,0 -0.67885,-0.0726 -0.67885,-0.16145 0,-0.0888 0.53578,-0.68966 1.19062,-1.33524 0.83392,-0.82212 1.19063,-1.39025 1.19063,-1.89634 0,-0.39741 0.19397,-0.9995 0.43106,-1.33799 0.32584,-0.46521 0.39456,-0.96909 0.28152,-2.06433 l -0.14954,-1.4489 1.99282,-0.94639 c 1.6296,-0.77389 2.14477,-1.17602 2.82654,-2.20631 0.87152,-1.31705 1.53666,-1.59319 3.79728,-1.57649 0.61421,0.005 1.1864,-0.28896 2.09289,-1.07352 1.00241,-0.86758 1.38224,-1.04708 1.93282,-0.91337 0.37688,0.0915 1.38451,0.21117 2.23918,0.26588 1.22559,0.0785 1.79991,0.27612 2.71794,0.93539 l 1.16398,0.83592 1.13591,-0.54989 c 0.62476,-0.30244 1.32942,-0.54988 1.56593,-0.54988 0.65354,0 0.82789,-0.50703 0.3543,-1.03034 -0.47992,-0.5303 -0.31644,-0.82175 0.46094,-0.82175 0.29171,0 0.74937,-0.19817 1.01701,-0.44039 0.45611,-0.41277 0.52486,-0.40447 1.09622,0.13229 0.83192,0.78155 1.9069,0.73352 2.69844,-0.12056 0.46914,-0.50621 0.98325,-0.7266 1.90559,-0.81688 0.69472,-0.068 2.00674,-0.49453 2.9156,-0.94783 1.53572,-0.76596 1.71933,-0.80002 2.59854,-0.48209 0.79657,0.28804 1.01625,0.28172 1.39023,-0.04 0.2443,-0.21015 0.83371,-0.57027 1.3098,-0.80028 0.8038,-0.38831 0.94636,-0.38248 1.99553,0.0816 0.70423,0.31152 2.17111,0.57906 3.89382,0.71019 2.45451,0.18683 2.77516,0.26896 2.86413,0.73363 0.14372,0.75063 2.40291,3.3143 2.91459,3.3074 0.23699,-0.003 0.95749,-0.24472 1.60112,-0.53672 l 1.17024,-0.53091 0.85459,0.8283 0.85459,0.8283 1.01315,-0.68845 c 0.60989,-0.41444 1.37836,-0.68846 1.9307,-0.68846 1.01088,0 0.84361,0.42506 -0.22546,0.57291 -0.40408,0.0559 -0.82845,0.42639 -1.15032,1.00431 -0.28051,0.50367 -0.70658,1.05949 -0.94681,1.23515 -0.39953,0.29215 -0.38478,0.38972 0.17299,1.14413 0.39631,0.53604 0.5506,1.01115 0.44075,1.35724 -0.25626,0.80741 0.33246,1.33621 1.30042,1.16806 1.84759,-0.32096 1.8353,0.92524 -0.0184,1.86495 -0.55574,0.28173 -1.21337,0.67563 -1.46139,0.87533 -0.3379,0.27206 -0.64145,0.29669 -1.21078,0.0982 -0.57622,-0.20087 -0.81888,-0.17842 -1.00425,0.0929 -0.13444,0.19678 -0.60162,0.40137 -1.03818,0.45465 -1.04942,0.12807 -1.69895,1.19582 -1.26757,2.08373 0.16464,0.33887 0.35784,1.0439 0.42934,1.56675 0.10113,0.73946 0.0141,1.03332 -0.39191,1.32291 -0.28705,0.20476 -0.82229,0.76438 -1.18941,1.24359 l -0.66749,0.8713 1.97332,2.17141 c 1.08532,1.19427 2.5818,2.79843 3.3255,3.5648 1.65587,1.70633 1.9149,2.4969 1.10173,3.36248 -0.32321,0.34405 -0.90332,0.75667 -1.28913,0.91693 -0.38581,0.16027 -0.90429,0.64609 -1.15218,1.07961 -0.4065,0.71089 -0.58169,0.78821 -1.78594,0.78821 -0.98298,0 -1.33522,0.10007 -1.33522,0.3793 0,0.2168 -0.31089,0.41517 -0.72565,0.46302 -0.48418,0.0559 -0.84116,0.32585 -1.07277,0.811331 -0.27582,0.57813 -0.52773,0.7276 -1.22633,0.7276 -0.48356,0 -1.02743,0.1786 -1.20858,0.39688 -0.18116,0.21828 -0.67982,0.39687 -1.10813,0.39687 -0.42831,0 -1.00353,0.12031 -1.27828,0.26734 -0.36115,0.19328 -0.79654,0.1485 -1.57171,-0.16166 -0.99002,-0.39613 -1.12276,-0.39587 -1.73204,0.003 -0.36291,0.23779 -0.65984,0.54867 -0.65984,0.69083 0,0.14217 -0.43317,0.25849 -0.96258,0.25849 h -0.96258 l 0.17491,1.70722 c 0.15622,1.52479 0.11957,1.73685 -0.34295,1.98438 -0.81761,0.43757 -0.93433,0.37496 -2.68931,-1.44265 z M 111.3439,85.200539 c -0.10995,-0.10914 -0.4722,-0.19844 -0.805,-0.19844 -0.45844,0 -1.29368,-0.85671 -3.44615,-3.53473 l -2.84105,-3.53474 -0.96218,0.15386 c -0.73282,0.11718 -1.23663,-0.002 -2.11359,-0.50016 -1.374228,-0.78058 -2.446511,-0.81512 -3.875533,-0.12485 -1.145371,0.55325 -2.647606,0.68982 -2.910417,0.26458 -0.201983,-0.32682 -3.412905,-0.34912 -4.520725,-0.0314 -1.383741,0.39685 -2.421722,-0.23215 -2.816044,-1.70647 -0.210632,-0.78753 -0.523852,-1.3149 -0.862601,-1.45235 -0.371954,-0.15093 -0.407864,-0.22087 -0.119429,-0.23259 0.226848,-0.009 0.643567,0.15803 0.926042,0.37169 0.697702,0.52771 1.500598,0.50139 2.117346,-0.0694 0.745917,-0.69036 5.25025,-0.42691 7.094982,0.41497 1.902612,0.8683 3.476289,0.78891 5.052079,-0.25485 0.70061,-0.46406 1.33022,-1.05937 1.39914,-1.32292 0.0689,-0.26354 0.32879,-0.47916 0.57749,-0.47916 0.2487,0 0.73182,-0.29766 1.0736,-0.66146 0.34177,-0.3638 0.77599,-0.66146 0.96493,-0.66146 0.63109,0 3.19945,-1.34771 3.81303,-2.00083 0.48032,-0.51128 0.87139,-0.645 1.88633,-0.645 0.70421,0 1.48713,0.10586 1.73982,0.23525 2.29585,1.17558 2.37403,1.19522 3.41548,0.85786 0.55698,-0.18043 1.7866,-0.3581 2.73249,-0.39482 0.94588,-0.0367 1.99431,-0.21661 2.32984,-0.39973 0.72455,-0.39545 3.21824,-0.17377 4.39154,0.39038 0.42254,0.20316 0.87639,0.36939 1.00857,0.36939 0.13217,0 0.85802,0.291 1.613,0.64666 1.21409,0.57194 1.67835,0.63865 4.01851,0.57738 1.51121,-0.0396 2.87275,0.0519 3.175,0.21324 0.29104,0.15538 0.56483,0.29834 0.60842,0.31768 0.0436,0.0193 -0.37312,0.65369 -0.92604,1.40968 -0.79507,1.08709 -1.43778,1.594 -3.07339,2.42402 l -2.06808,1.0495 0.178,1.42466 c 0.13707,1.09709 0.0803,1.56419 -0.24702,2.03146 -0.23376,0.33374 -0.42502,0.92559 -0.42502,1.31522 0,0.74716 -1.46844,2.456 -2.35127,2.7362 -0.26066,0.0827 -0.90599,-0.0301 -1.43407,-0.25077 -1.18716,-0.49602 -1.99888,-0.51002 -2.54382,-0.0439 -0.63904,0.54665 -6.47393,1.0264 -8.32396,0.6844 -1.3526,-0.25004 -1.56564,-0.22409 -2.18956,0.26669 -0.75186,0.59141 -0.95631,0.64739 -1.26069,0.34524 z M 97.961855,75.086219 c -2.593392,-0.39627 -5.376939,-2.13581 -5.101719,-3.18826 0.07258,-0.27755 0.684616,-0.94216 1.360073,-1.4769 0.675458,-0.53474 1.495404,-1.28265 1.822103,-1.66203 0.610958,-0.70947 0.788215,-1.73076 0.347651,-2.00304 -0.321717,-0.19884 0.448362,-1.92534 1.31056,-2.93826 0.363086,-0.42656 1.098295,-1.00673 1.633796,-1.28928 0.535501,-0.28255 1.120731,-0.78856 1.300501,-1.12448 0.2708,-0.50598 0.54186,-0.61075 1.58004,-0.61075 1.03935,0 1.43817,0.15455 2.33733,0.90578 1.18306,0.98842 2.72167,1.61382 3.36395,1.36735 0.2241,-0.086 0.6624,0.0222 0.974,0.24046 0.3116,0.21825 0.82452,0.39682 1.13982,0.39682 0.76116,0 1.58136,0.71247 2.15146,1.86888 0.55247,1.12066 2.57778,3.0089 2.96838,2.76749 0.15101,-0.0933 0.27456,-0.50615 0.27456,-0.91739 0,-0.50869 0.21478,-0.88843 0.67191,-1.18796 0.36955,-0.24214 0.85361,-0.82138 1.07567,-1.2872 l 0.40376,-0.84694 1.90089,0.13857 1.90089,0.13857 2.05052,2.05909 c 1.12779,1.1325 2.05052,2.17868 2.05052,2.32485 0,0.16996 -0.6661,0.20011 -1.84801,0.0837 -1.17189,-0.11547 -2.11571,-0.074 -2.57969,0.11345 -0.40242,0.16254 -1.56511,0.34088 -2.58376,0.39629 -1.01864,0.0554 -2.15923,0.22463 -2.53463,0.37603 -0.68826,0.27757 -1.30942,0.10386 -3.19473,-0.8934 -1.27236,-0.67303 -2.74672,-0.47898 -3.86102,0.50816 -0.54612,0.48381 -1.70732,1.15449 -2.58045,1.49041 -0.87312,0.33592 -1.78518,0.83305 -2.02679,1.10473 -0.2416,0.27168 -0.69064,0.49397 -0.99785,0.49397 -0.33675,0 -0.67644,0.25868 -0.85536,0.65136 -0.31063,0.68176 -1.83771,1.82536 -2.738055,2.05047 -0.289132,0.0723 -1.061476,0.0496 -1.71632,-0.0505 z m -10.701536,-0.72678 c -0.472768,-0.24771 -1.137465,-0.34478 -1.775214,-0.25924 -1.223861,0.16416 -1.346426,-0.11176 -1.197852,-2.69665 0.07025,-1.22228 0.225249,-1.78636 0.557628,-2.0294 0.383161,-0.28017 0.43008,-0.57871 0.279882,-1.78085 -0.121027,-0.96867 -0.07161,-1.64763 0.150077,-2.06185 l 0.330525,-0.61759 0.213653,0.57756 c 0.200155,0.54107 0.267941,0.55473 1.073,0.21623 0.472641,-0.19873 1.10288,-0.58793 1.40053,-0.86489 0.29765,-0.27695 0.758249,-0.45756 1.023552,-0.40134 0.410406,0.087 0.454867,0.26501 0.298017,1.19339 -0.101395,0.60015 -0.31836,1.30576 -0.482145,1.56802 -0.248064,0.39721 -0.165282,0.5851 0.495734,1.12514 0.436438,0.35656 1.031649,0.6544 1.322691,0.66187 0.903199,0.0232 1.115643,0.35129 1.242776,1.91959 0.07385,0.91094 0.303322,1.71651 0.574251,2.01588 0.438896,0.48498 0.399848,0.49496 -1.425679,0.36434 -1.718627,-0.12297 -1.888703,-0.0893 -2.016462,0.39926 -0.217937,0.83339 -1.16635,1.14136 -2.064964,0.67053 z m 3.160911,-0.60164 c -0.42449,-0.18241 -0.332898,-0.23107 0.463021,-0.24599 0.545703,-0.0102 0.992187,0.10047 0.992187,0.24599 0,0.31595 -0.71996,0.31595 -1.455208,0 z m 46.24376,-1.92775 c -0.11344,-0.17667 -0.62298,-0.53093 -1.1323,-0.78726 -0.73759,-0.37121 -1.11192,-0.41223 -1.83944,-0.20156 -1.3281,0.38457 -4.49022,0.0604 -5.35974,-0.5494 -0.39429,-0.27653 -1.03922,-0.50278 -1.43316,-0.50278 -0.39395,0 -0.64042,-0.0759 -0.5477,-0.16857 0.27035,-0.27035 -0.82603,-1.6981 -2.53971,-3.30731 l -1.58833,-1.4915 0.14589,-1.60889 c 0.0963,-1.06202 0.33455,-1.84874 0.70091,-2.3145 0.63831,-0.81147 0.67267,-1.10925 0.24679,-2.13836 -0.16953,-0.40966 -0.33837,-1.30545 -0.37519,-1.99065 -0.0543,-1.00984 0.0247,-1.2749 0.41664,-1.39931 0.8454,-0.26832 1.07175,-0.75885 0.79517,-1.72324 -0.19591,-0.68308 -0.18247,-0.81551 0.0583,-0.57472 0.46522,0.46522 1.10729,0.3811 1.90989,-0.25022 0.60001,-0.47197 0.8219,-0.51479 1.37105,-0.26458 0.36034,0.16418 0.8877,0.29852 1.17189,0.29852 0.2842,0 0.51672,0.11166 0.51672,0.24814 0,0.13648 0.53578,0.63291 1.19062,1.10318 1.32055,0.94835 1.44288,1.27427 0.66146,1.76227 -0.73741,0.46052 -0.66,0.85516 0.16774,0.85516 0.3833,0 1.16103,0.13905 1.72829,0.309 0.63259,0.18953 1.1261,0.21429 1.27636,0.064 0.29279,-0.29279 0.36104,-1.89068 0.15311,-3.58471 -0.15041,-1.22545 -0.14927,-1.22757 0.74963,-1.3962 0.49514,-0.0929 1.41791,-0.0495 2.05059,0.0964 0.63268,0.14589 1.88762,0.26817 2.78876,0.27172 l 1.63843,0.006 0.0814,1.11142 c 0.069,0.94238 0.21611,1.18985 0.96732,1.62708 0.65669,0.38222 0.93662,0.43371 1.08169,0.19898 0.14694,-0.23777 0.27503,-0.22113 0.51395,0.0668 0.17503,0.21089 0.62436,0.46027 0.99853,0.55418 0.64509,0.16191 0.65723,0.19625 0.2345,0.66336 -0.41034,0.45343 -0.41244,0.55715 -0.0264,1.30372 0.27538,0.53253 0.71363,0.88727 1.276,1.03287 0.47253,0.12233 0.99025,0.48947 1.15474,0.81888 0.16399,0.32842 0.54872,0.77261 0.85494,0.9871 0.83654,0.58593 0.22907,1.42525 -1.03155,1.42525 -1.21738,0 -1.57645,0.38828 -1.57816,1.70656 -0.001,1.06712 -0.14993,1.37575 -1.78455,3.70778 -0.91738,1.30879 -1.06151,1.87384 -0.52916,2.07464 0.1819,0.0686 -0.15988,0.0649 -0.75951,-0.008 -0.97064,-0.11836 -1.20636,-0.028 -2.14874,0.82335 -0.7308,0.66024 -1.30944,0.95628 -1.8691,0.95628 -0.44583,0 -1.11249,0.11478 -1.48146,0.25506 -0.47815,0.18179 -0.73012,0.16279 -0.87712,-0.0661 z m -44.174268,-1.32102 c 0.121165,-1.3186 -0.211356,-1.77831 -1.286299,-1.77831 -0.243222,0 -0.759318,-0.2679 -1.146881,-0.59532 -0.667964,-0.56431 -0.68488,-0.63642 -0.324826,-1.3848 0.208908,-0.43422 0.379786,-1.14859 0.379729,-1.5875 -7.8e-5,-0.59013 0.286538,-1.0737 1.100262,-1.85634 1.613101,-1.55148 3.509688,-2.83922 3.633697,-2.46719 0.166291,0.49887 0.734201,-0.0198 0.734201,-0.67051 0,-0.32611 -0.148828,-0.74223 -0.330729,-0.92471 -0.264742,-0.26559 -0.198755,-0.43334 0.330729,-0.84079 0.932799,-0.71779 1.296388,-0.646 1.717462,0.33913 0.532554,1.24595 1.777433,2.32029 2.476714,2.13743 0.313679,-0.082 0.568329,-0.0247 0.568329,0.12792 0,0.34225 -0.743996,1.10809 -1.076475,1.10809 -0.482834,0 -2.333646,1.89806 -2.888125,2.96185 -0.474239,0.90984 -0.516571,1.20233 -0.262714,1.81519 0.390469,0.94268 -0.102737,1.73961 -1.887378,3.04966 -0.710504,0.52156 -1.418288,1.1468 -1.572853,1.38944 -0.213626,0.33535 -0.253162,0.1379 -0.164843,-0.82324 z m 55.523638,0.441 c -0.53822,-0.42903 -1.33431,-0.75253 -2.05052,-0.83326 -0.6439,-0.0726 -1.17073,-0.22725 -1.17073,-0.34373 0,-0.11647 -0.23893,-0.24982 -0.53095,-0.29632 -0.48307,-0.0769 -0.43521,-0.21575 0.53077,-1.53975 1.37482,-1.88438 1.85226,-2.93926 1.85226,-4.09255 0,-0.92892 0.007,-0.93454 1.17124,-0.93454 1.02613,0 1.21835,-0.0944 1.55134,-0.76191 0.37021,-0.7421 0.34772,-0.79711 -0.86541,-2.11666 -0.68502,-0.74512 -1.4359,-1.35476 -1.66862,-1.35476 -0.57721,0 -1.32248,-1.08857 -0.97985,-1.4312 0.4912,-0.49121 0.27402,-1.22321 -0.44391,-1.49617 -0.38832,-0.14764 -0.85656,-0.47211 -1.04052,-0.72105 -0.25633,-0.34686 -0.40805,-0.38012 -0.64933,-0.14235 -0.46369,0.45694 -1.5719,-0.11652 -1.57647,-0.81576 -0.002,-0.30407 -0.0686,-0.7947 -0.14802,-1.0903 -0.11597,-0.43163 0.0671,-0.63076 0.92965,-1.01133 0.59074,-0.26063 1.07407,-0.58432 1.07407,-0.71932 0,-0.33664 1.68059,-0.3111 2.02243,0.0308 0.17468,0.17468 0.92632,0.20957 2.0452,0.0949 1.48404,-0.15204 1.8673,-0.29805 2.37913,-0.90632 0.50125,-0.5957 0.70048,-0.67509 1.11657,-0.44488 0.27855,0.15411 0.64566,0.46744 0.81579,0.69628 0.21462,0.28869 0.74609,0.41608 1.73582,0.41608 1.31909,0 1.41831,0.0431 1.31794,0.5719 -0.0733,0.38613 0.076,0.67067 0.45971,0.87601 0.38608,0.20662 0.51844,0.46106 0.41286,0.7937 -0.0864,0.27237 0.0771,0.87182 0.36853,1.35109 0.51893,0.85331 0.51903,0.86772 0.0104,1.51436 -0.62472,0.7942 -0.64203,1.19774 -0.0877,2.04377 0.30373,0.46356 0.58825,0.60994 0.99219,0.5105 0.92571,-0.2279 3.32137,1.49039 3.90955,2.80413 0.47402,1.05875 0.53163,1.09584 1.55111,0.99862 1.00057,-0.0954 1.05881,-0.0614 1.05881,0.61862 0,0.74175 0.8149,1.53972 1.58022,1.5474 0.22229,0.002 0.57801,0.11402 0.79051,0.24843 0.33184,0.2099 0.31945,0.31831 -0.0878,0.76834 -0.39651,0.43814 -0.70193,0.50046 -1.8646,0.38046 -1.15265,-0.11896 -1.59009,-0.0323 -2.55801,0.50693 -0.64217,0.35774 -1.81656,0.72681 -2.60975,0.82014 -1.06328,0.12512 -1.60479,0.3451 -2.06122,0.83734 -0.74948,0.80828 -1.72747,0.85794 -2.64728,0.13442 -0.60662,-0.47717 -0.72408,-0.49141 -1.11742,-0.13543 -0.24176,0.21878 -0.82877,0.47563 -1.30449,0.57077 -0.80093,0.16018 -0.8535,0.23395 -0.71039,0.99678 0.16192,0.86308 0.12714,0.88856 -2.22641,1.6318 -0.21828,0.0689 -0.79278,-0.19025 -1.27666,-0.57597 z m 34.87875,-1.02869 c -0.75613,-0.80486 -0.91783,-0.8109 -2.5369,-0.0947 l -1.28125,0.56676 -1.26301,-1.42666 c -0.70439,-0.79566 -1.2643,-1.68995 -1.26593,-2.02196 -0.002,-0.38452 -0.16687,-0.59986 -0.46594,-0.60816 -2.44575,-0.0679 -5.67862,-0.5211 -6.54843,-0.91808 -0.96684,-0.44126 -1.00312,-0.4926 -0.4196,-0.59389 1.79161,-0.31099 4.87845,-3.21867 3.99598,-3.76406 -0.17308,-0.10698 -0.27467,-0.47879 -0.22575,-0.82625 0.0747,-0.53038 -0.0384,-0.64612 -0.7048,-0.72131 -1.07775,-0.1216 -1.45521,-0.49079 -1.45521,-1.42335 0,-0.43266 -0.24914,-1.13654 -0.55364,-1.56418 l -0.55365,-0.77752 0.68981,-0.90439 c 0.3794,-0.49742 0.80768,-1.17794 0.95174,-1.51228 0.2186,-0.50735 0.24958,-0.42151 0.18734,0.519 -0.0915,1.382 0.43276,1.37588 0.55016,-0.006 0.0636,-0.74836 0.20685,-0.97462 0.66146,-1.04447 0.54126,-0.0832 0.5269,-0.11919 -0.21343,-0.53501 -0.88073,-0.4947 -0.69732,-0.63926 0.21584,-0.17012 1.2274,0.6306 2.0268,1.61294 1.8933,2.32658 -0.0704,0.37609 -0.0578,0.53498 0.028,0.35307 0.22704,-0.48158 0.64099,-0.40469 0.64099,0.11907 0,0.34406 0.0729,0.37684 0.31032,0.13947 0.22427,-0.22428 0.2334,-0.47916 0.0329,-0.91916 -0.26666,-0.58526 -0.23345,-0.60801 0.8577,-0.5875 0.62431,0.0117 1.30506,0.16239 1.51278,0.33478 0.20772,0.17239 0.43493,0.25618 0.50491,0.1862 0.07,-0.07 0.46826,0.22871 0.88505,0.66376 0.48266,0.50378 1.02271,0.79099 1.48735,0.79099 0.45854,0 1.08878,0.32912 1.6967,0.88606 l 0.96719,0.88605 -0.67825,0.50301 c -0.37303,0.27665 -0.99062,0.72475 -1.37241,0.99578 -0.41764,0.29648 -0.64795,0.6695 -0.57815,0.93641 0.0638,0.244 -0.13572,1.20306 -0.44338,2.13126 l -0.55938,1.68763 -1.9148,-0.0621 c -2.27705,-0.0738 -2.50118,0.28674 -0.65803,1.05867 0.69122,0.28949 1.47653,0.64811 1.74514,0.79694 0.37097,0.20555 0.61522,0.15579 1.01608,-0.20698 0.50639,-0.45827 0.54169,-0.45847 0.87333,-0.005 0.32188,0.4402 0.38505,0.41726 0.92016,-0.33424 0.64639,-0.90777 1.64723,-1.05084 3.4896,-0.49886 0.90296,0.27053 1.07076,0.24968 1.37861,-0.17134 0.28541,-0.39031 0.59163,-0.45222 1.64844,-0.33327 1.10739,0.12465 1.44355,0.31015 2.2901,1.2637 0.5457,0.61468 0.99219,1.2243 0.99219,1.35471 0,0.13041 -0.30918,0.35466 -0.68707,0.49833 -0.37788,0.14367 -0.74751,0.49237 -0.82139,0.77489 -0.18154,0.69424 -1.98574,1.59631 -3.19605,1.59798 -0.58099,8e-4 -1.41751,0.26834 -2.04237,0.6532 -0.58208,0.35851 -1.12688,0.65556 -1.21065,0.6601 -0.0838,0.005 -0.43195,-0.2894 -0.77372,-0.6532 z m -69.1224,-2.90094 c -0.5457,-0.47262 -0.99219,-1.02792 -0.99219,-1.234 0,-0.79258 -1.54099,-2.27057 -2.53565,-2.43198 -0.53326,-0.0865 -1.19069,-0.35745 -1.46095,-0.60204 -0.34052,-0.30816 -0.59445,-0.36421 -0.82708,-0.18254 -0.4875,0.38072 -1.76983,-0.0428 -2.84165,-0.93845 -0.8514,-0.71147 -0.89487,-0.81931 -0.59532,-1.47675 0.39926,-0.87628 0.41852,-1.74267 0.0387,-1.74267 -0.46318,0 0.90908,-2.23463 1.43438,-2.3358 0.41319,-0.0796 0.4392,-0.0138 0.18349,0.46401 -0.36233,0.67703 0.0204,0.89364 1.35333,0.76595 0.78411,-0.0751 0.89454,-0.18289 0.96799,-0.94469 0.0732,-0.75944 0.17512,-0.85989 0.87221,-0.85989 0.59148,0 0.89854,-0.19037 1.22524,-0.75961 0.43204,-0.75278 0.43985,-0.75478 0.87008,-0.22348 0.37751,0.46621 0.54358,0.49797 1.27345,0.24353 0.81176,-0.28298 0.8523,-0.26154 1.23428,0.65267 0.21723,0.5199 0.39496,1.04406 0.39496,1.16482 0,0.12076 0.52888,0.58344 1.17529,1.02818 l 1.17528,0.80862 -0.0508,1.84891 c -0.043,1.56467 -0.12198,1.84906 -0.51383,1.84992 -0.66197,0.001 -0.575,0.32389 0.31816,1.1796 0.74527,0.71401 0.76326,0.78306 0.39137,1.50222 -0.21439,0.41459 -0.68499,0.94721 -1.04576,1.1836 -0.36077,0.23639 -0.65778,0.62446 -0.66,0.86239 -0.009,0.98803 -0.39242,1.03713 -1.38502,0.17748 z m -30.286677,-2.32458 c -0.558822,-0.58367 -1.027715,-1.53985 -1.45965,-2.97656 -0.56799,-1.88927 -0.710633,-2.12548 -1.327741,-2.1987 -0.52065,-0.0618 -0.73352,-0.27386 -0.862006,-0.85886 l -0.170622,-0.77683 -1.126929,0.66042 c -1.97324,1.1564 -2.180044,0.8917 -0.830032,-1.06239 2.019958,-2.92382 2.10137,-3.15923 2.692756,-7.78636 0.106844,-0.83597 0.511185,-2.0006 0.964518,-2.77812 0.429305,-0.73631 0.856795,-1.47602 0.949978,-1.64381 1.049085,-1.88894 1.816649,-2.69217 2.71365,-2.83974 0.860668,-0.1416 1.046209,-0.33187 1.847983,-1.89509 0.812399,-1.58393 0.911355,-1.68365 1.118404,-1.12702 0.509957,1.37098 1.397489,2.93204 1.850136,3.25418 0.3595,0.25584 0.393036,0.37503 0.132291,0.47018 -0.279848,0.10211 -0.283538,0.19715 -0.01856,0.47802 0.181901,0.19282 0.330729,0.54883 0.330729,0.79114 0,0.24232 0.226532,0.72856 0.503405,1.08055 0.662552,0.8423 0.458337,1.91612 -0.607764,3.19581 -1.745208,2.09486 -2.210835,2.73748 -2.383335,3.28929 -0.09825,0.31428 -0.352614,0.71581 -0.56526,0.89229 -0.539903,0.44808 -0.481744,1.14632 0.142538,1.71129 0.352947,0.31941 0.529166,0.8149 0.529166,1.48791 0,0.78821 0.08685,0.97569 0.396875,0.85673 0.249292,-0.0957 0.396875,0.003 0.396875,0.26458 0,0.2397 0.150661,0.35906 0.354486,0.28085 0.194966,-0.0748 0.514732,0.0571 0.71059,0.29305 0.299608,0.36101 0.295839,0.47106 -0.02376,0.69364 -0.289763,0.20181 -0.301416,0.29639 -0.04913,0.39876 0.181901,0.0738 0.330729,0.35821 0.330729,0.63201 0,0.27379 0.255967,0.6348 0.568816,0.80223 0.695678,0.37231 2.727432,0.13356 3.571875,-0.41975 0.759465,-0.49762 0.886392,-0.49514 0.886392,0.0173 0,0.22687 -0.1097,0.34469 -0.243779,0.26182 -0.226667,-0.14008 -4.005476,2.67804 -4.359874,3.25147 -0.08766,0.14183 -0.397352,0.19564 -0.688216,0.11958 -0.361084,-0.0944 -0.864824,0.16524 -1.587998,0.81859 -1.193006,1.07781 -1.514298,1.15717 -1.999328,0.49386 -0.318162,-0.4351 -0.37678,-0.42713 -0.972263,0.13229 -0.348529,0.32742 -0.691956,0.59532 -0.763171,0.59532 -0.07122,0 -0.499965,-0.38696 -0.952776,-0.8599 z m 83.557047,0.22611 c -0.16853,-0.20305 -0.71744,-0.4463 -1.21981,-0.54055 -1.29348,-0.24266 -1.95751,-1.73608 -0.77192,-1.73608 0.20969,0 0.38126,-0.11906 0.38126,-0.26458 0,-0.14839 -0.73194,-0.26459 -1.66664,-0.26459 -1.65336,0 -1.66922,-0.007 -1.99009,-0.89446 -0.36495,-1.00927 -3.24948,-3.14883 -3.90571,-2.89701 -1.04663,0.40163 -1.56088,-1.32795 -0.64206,-2.15947 0.52571,-0.47576 0.52568,-0.47844 -0.0191,-1.35991 -0.3585,-0.58007 -0.48324,-1.0805 -0.36343,-1.45799 0.13437,-0.42336 0.0248,-0.69365 -0.41583,-1.02604 -0.71434,-0.53883 -0.5329,-0.95052 0.52094,-1.18198 0.42484,-0.0933 0.91169,-0.33744 1.08189,-0.54252 0.17019,-0.20508 0.7142,-0.4488 1.2089,-0.5416 0.4947,-0.0928 0.89946,-0.27455 0.89946,-0.40388 0,-0.38668 0.74976,-0.26833 1.84732,0.2916 0.56787,0.2897 1.21402,0.45707 1.4359,0.37193 0.24607,-0.0944 0.6485,0.13012 1.03176,0.57569 0.38609,0.44885 0.92502,0.7481 1.39783,0.77615 1.06569,0.0632 2.22469,-0.56141 2.22469,-1.19897 0,-0.83219 0.4317,-0.60744 0.90243,0.46982 0.23845,0.5457 0.66108,1.41919 0.93918,1.94109 l 0.50562,0.94891 -0.61721,1.02269 -0.61721,1.02268 0.63422,0.83151 c 0.35391,0.46401 0.63422,1.19388 0.63422,1.65142 0,0.86507 0.77209,1.64368 1.62993,1.64368 0.26304,0 0.44591,0.19466 0.43497,0.46302 -0.0104,0.25466 0.0699,0.67289 0.17833,0.92939 0.26665,0.6306 -1.40868,2.15678 -3.01854,2.7498 -0.66499,0.24496 -1.39704,0.6038 -1.62677,0.79742 -0.5241,0.4417 -0.63527,0.43982 -1.01453,-0.0172 z m -45.6636,-0.95371 c -0.29104,-0.12507 -1.24681,-0.23576 -2.12394,-0.24599 -2.12707,-0.0248 -3.64131,-1.02958 -2.22775,-1.47823 0.41954,-0.13316 0.47594,-0.25329 0.24791,-0.52805 -0.16624,-0.2003 -0.25901,-1.02014 -0.21237,-1.87671 0.0823,-1.51118 0.0757,-1.52629 -1.01629,-2.33405 -1.55449,-1.14987 -2.64291,-4.12031 -1.50975,-4.12031 0.23862,0 0.56604,-0.16431 0.72761,-0.36514 0.46768,-0.58134 1.73179,-0.7812 1.91536,-0.30282 0.22104,0.57602 0.75072,0.49946 1.60031,-0.23133 l 0.7379,-0.63471 0.8587,0.75395 c 0.47229,0.41467 1.30773,0.82863 1.85655,0.91991 1.9565,0.32539 2.19967,0.74141 0.87419,1.49557 -0.75078,0.42716 -0.77549,0.50058 -0.6233,1.85208 0.0872,0.77401 0.26112,1.60782 0.38657,1.85291 0.37605,0.73469 0.26122,1.51537 -0.34314,2.33281 -0.39799,0.5383 -0.56572,1.13687 -0.55307,1.97366 0.01,0.66056 -8.5e-4,1.19266 -0.0241,1.18243 -0.0232,-0.0102 -0.28036,-0.12092 -0.57141,-0.24598 z m 59.39896,0.16059 c 0,-0.0572 0.18478,-0.17489 0.41062,-0.26155 0.23545,-0.0904 0.34166,-0.046 0.24896,0.10399 -0.15537,0.2514 -0.65958,0.37185 -0.65958,0.15756 z m -0.26458,-1.13264 c 0,-0.41907 1.47787,-1.11716 2.82932,-1.33647 1.02036,-0.16559 1.11595,0.14448 0.27953,0.90665 -0.747,0.68069 -3.10885,1.00723 -3.10885,0.42982 z m 3.38997,-0.002 c 0.191,-0.0764 0.4192,-0.067 0.50712,0.0209 0.0879,0.0879 -0.0684,0.15046 -0.34727,0.13897 -0.30822,-0.0127 -0.37092,-0.0754 -0.15985,-0.15986 z m -1.64206,-2.31069 c 0.0884,-0.23044 0.27703,-0.41898 0.41911,-0.41898 0.34776,0 0.13,0.60134 -0.26551,0.73317 -0.19335,0.0644 -0.25248,-0.0565 -0.1536,-0.31419 z m -83.764212,-0.98295 c -0.439057,-0.40101 -0.798286,-0.91086 -0.798286,-1.13299 0,-0.22213 -0.357188,-0.66795 -0.79375,-0.99071 -0.483839,-0.35772 -0.79375,-0.82568 -0.79375,-1.19855 0,-0.50626 0.139889,-0.6117 0.811545,-0.6117 0.526734,0 1.175046,-0.30178 1.847314,-0.85989 0.878229,-0.72911 1.038605,-1.02087 1.054416,-1.91823 0.01832,-1.03952 0.02603,-1.04775 0.433913,-0.46302 0.2284,0.32742 0.68742,0.59531 1.02004,0.59531 0.33262,0 1.22264,0.32056 1.97781,0.71236 1.17229,0.6082 1.31126,0.75753 0.95046,1.02135 -0.52781,0.38595 -0.54322,1.13403 -0.0349,1.69568 0.34053,0.37628 0.34018,0.51985 -0.003,1.18097 -0.28654,0.55231 -0.31348,0.84537 -0.10121,1.10114 0.15908,0.19169 0.21186,0.59236 0.11727,0.89039 -0.13862,0.43673 -0.41235,0.54882 -1.41093,0.57772 -0.68141,0.0197 -1.74291,0.0569 -2.35888,0.0826 -0.891595,0.0372 -1.282708,-0.10194 -1.91823,-0.6824 z m 8.452512,-3.2609 c 0.73453,-0.88506 -0.95993,-1.33944 -1.88226,-0.50474 -0.44327,0.40115 -0.49087,0.40022 -0.64933,-0.0127 -0.10383,-0.27058 0.004,-0.57326 0.27347,-0.7706 0.24445,-0.17875 0.37707,-0.50045 0.29472,-0.71489 -0.18942,-0.49321 -2.7458,-1.84511 -3.48901,-1.84511 -0.30736,0 -0.7487,-0.26789 -0.98076,-0.59531 l -0.42191,-0.59531 -0.510457,0.59258 c -0.503848,0.58491 -0.518461,0.58611 -1.12856,0.0921 l -0.618102,-0.50051 1.981221,-1.90772 c 1.089668,-1.04924 2.360038,-2.07114 2.823028,-2.27088 0.46299,-0.19974 0.90959,-0.47285 0.99245,-0.60691 0.0829,-0.13407 0.37522,-0.18503 0.64969,-0.11325 0.27447,0.0718 0.57904,10e-4 0.67681,-0.15713 0.0978,-0.1582 0.58186,-0.28764 1.07574,-0.28764 0.49389,0 1.20226,-0.13864 1.57415,-0.30808 0.51246,-0.2335 0.81975,-0.23398 1.26922,-0.002 0.32618,0.16834 1.72414,0.33675 3.10659,0.37423 2.36081,0.064 2.46895,0.091 1.7796,0.44424 -0.86144,0.44142 -1.12218,1.21527 -0.74432,2.20911 0.23341,0.61391 0.1897,0.75739 -0.31606,1.03737 -0.32281,0.1787 -0.73575,0.29471 -0.91766,0.2578 -0.46943,-0.0952 -0.41636,1.14314 0.0661,1.54359 0.21829,0.18116 0.39688,0.47882 0.39688,0.66146 0,0.18264 0.18462,0.4853 0.41027,0.67257 0.34653,0.2876 0.43353,0.25152 0.56002,-0.23218 0.22351,-0.85471 0.70644,-0.70481 0.49912,0.15492 -0.30386,1.26009 -1.99858,2.00249 -1.99858,0.87551 0,-0.28245 -0.10315,-0.5773 -0.22922,-0.65522 -0.26069,-0.16111 -0.93211,0.54308 -1.17746,1.23492 -0.10402,0.29329 -0.43883,0.46302 -0.91335,0.46302 -0.90758,0 -1.38413,0.42815 -1.38413,1.24354 0,0.4803 -0.14622,0.60855 -0.69386,0.60855 -0.57748,0 -0.64023,-0.0646 -0.3741,-0.38529 z m 25.28699,0.027 c -0.52165,-0.22249 -0.67662,-0.40084 -0.46302,-0.53285 0.65465,-0.40459 0.31853,-1.21967 -0.80341,-1.94824 -0.61847,-0.40161 -1.28006,-0.93909 -1.47022,-1.19438 -0.19015,-0.2553 -0.68912,-0.46416 -1.10886,-0.46416 -0.41972,0 -0.84024,-0.12476 -0.93448,-0.27725 -0.0942,-0.15248 -0.36916,-0.24872 -0.61093,-0.21387 -1.11718,0.16104 -1.59977,-0.29011 -1.6824,-1.5728 -0.0708,-1.09871 -0.15705,-1.25417 -0.74155,-1.33619 -0.77022,-0.10809 -1.17025,-0.60054 -0.71592,-0.88133 0.17297,-0.1069 0.94882,-0.27362 1.72411,-0.37048 1.25665,-0.15701 1.45344,-0.11356 1.81341,0.40036 0.22208,0.31707 0.60081,0.53621 0.84161,0.48697 0.53574,-0.10953 1.41505,1.2067 1.1929,1.78562 -0.19315,0.50334 0.66967,1.51811 1.13799,1.3384 0.18642,-0.0715 0.40932,-0.0162 0.49533,0.12296 0.086,0.13916 0.59584,0.25485 1.13295,0.25708 1.38986,0.006 1.74885,0.31971 1.71462,1.49949 -0.0161,0.5555 0.0629,1.12906 0.17557,1.27458 0.11269,0.14552 0.20127,0.65154 0.19685,1.12448 -0.009,0.97151 -0.49264,1.09954 -1.89455,0.50161 z m -35.954543,-2.23899 c -0.155194,-0.97053 -0.618365,-1.72569 -2.487625,-4.05583 -0.473919,-0.59077 -0.936821,-1.38933 -1.02867,-1.77457 -0.09185,-0.38525 -0.279894,-0.84406 -0.417878,-1.01959 -0.137983,-0.17553 -0.180245,-0.43342 -0.09392,-0.57311 0.08633,-0.13968 0.04,-0.56162 -0.102965,-0.93763 -0.225133,-0.59215 -0.189969,-0.68366 0.262691,-0.68366 0.461679,0 0.666009,-0.41478 0.55395,-1.12448 -0.01723,-0.10914 0.214479,-0.19844 0.514916,-0.19844 0.660179,0 1.847579,1.34869 2.270513,2.57892 0.430256,1.25153 1.110122,1.919 1.954647,1.919 0.558811,0 0.798128,0.18706 1.065687,0.83301 0.323586,0.7812 0.300901,0.86821 -0.364775,1.399 -0.947068,0.75517 -0.894616,1.2684 0.216221,2.11568 0.966126,0.7369 1.184518,1.20856 0.559597,1.20856 -0.201545,0 -0.561477,0.29765 -0.79985,0.66146 -0.294438,0.44937 -0.675111,0.66146 -1.187238,0.66146 -0.668838,0 -0.772041,-0.11386 -0.915305,-1.00978 z m 26.023003,-1.07971 c -0.21828,-0.11346 -0.75406,-0.38045 -1.19062,-0.59332 -0.56757,-0.27674 -0.7713,-0.54612 -0.71495,-0.94534 0.10095,-0.71516 -0.46758,-1.08304 -0.78825,-0.51004 -0.52925,0.94571 -0.74585,0.39288 -0.58154,-1.48421 0.18945,-2.16416 0.40915,-2.58002 1.12641,-2.13209 0.26602,0.16614 1.03032,0.38404 1.69844,0.48423 0.97005,0.14547 1.23105,0.29648 1.29565,0.74965 0.0581,0.40735 0.26755,0.56748 0.74236,0.56748 0.60358,0 0.66862,0.1125 0.74328,1.28564 0.0649,1.02008 0.19013,1.31396 0.60613,1.42275 0.28837,0.0754 0.47763,0.27078 0.42057,0.43415 -0.11415,0.32684 -0.85087,0.34555 -1.57154,0.0399 -0.3566,-0.15123 -0.46302,-0.0682 -0.46302,0.36111 0,0.5793 -0.56239,0.71537 -1.32292,0.32007 z m -8.015,-0.55313 c 0.16227,-0.62055 -0.59162,-1.02743 -1.05153,-0.56752 -0.43754,0.43754 -0.60377,0.37508 -0.93468,-0.35119 -0.26512,-0.58187 -0.21027,-0.71236 0.51721,-1.23037 0.73973,-0.52673 0.80031,-0.67818 0.66575,-1.6642 -0.13701,-1.00397 -0.0753,-1.14552 0.82938,-1.90114 1.21603,-1.01573 2.24988,-1.31008 2.69933,-0.76853 0.17999,0.21687 0.6401,0.40268 1.02246,0.41291 0.38236,0.0102 0.92696,0.10929 1.21021,0.22013 0.4897,0.19164 0.48609,0.2091 -0.0736,0.35547 -0.61309,0.16032 -0.64118,0.35745 -0.59992,4.20919 0.0116,1.08472 -0.66812,1.60857 -1.17961,0.90906 -0.41336,-0.56529 -2.1632,-0.26606 -2.37663,0.40642 -0.21613,0.68096 -0.90683,0.65229 -0.72835,-0.0302 z m 23.57258,-0.54435 c -0.68391,-0.11272 -1.36607,-0.28072 -1.51592,-0.37332 -0.14984,-0.0926 -0.72137,-0.0429 -1.27007,0.11043 -0.77918,0.21777 -1.46112,0.177 -3.1143,-0.18618 -2.03403,-0.44685 -2.12004,-0.49599 -2.20317,-1.25876 -0.0476,-0.43656 -0.1964,-0.90686 -0.33073,-1.0451 -0.54815,-0.56416 -0.24795,-0.90661 0.66491,-0.75847 0.74833,0.12144 1.0228,0.0249 1.5517,-0.5458 0.59182,-0.63858 0.81253,-0.69333 2.79503,-0.69333 1.73692,0 2.15247,-0.0766 2.15247,-0.39688 0,-0.21828 0.10933,-0.39687 0.24295,-0.39687 0.50263,0 1.08013,0.33209 1.08445,0.62362 0.007,0.48945 2.31963,2.81319 2.83257,2.84648 0.76571,0.0497 0.95144,0.0923 1.99403,0.45749 0.54704,0.19161 0.92645,0.4587 0.84312,0.59353 -0.57378,0.92839 -3.32256,1.41948 -5.72704,1.02316 z m 15.78139,-1.26599 c -0.29883,-0.0975 -0.72025,-0.34574 -0.93648,-0.55166 -0.34604,-0.32955 -0.31264,-0.45626 0.27874,-1.05745 1.04675,-1.06411 1.62832,-1.26438 3.32708,-1.14574 0.90703,0.0634 1.9157,-0.0283 2.3719,-0.21558 l 0.79375,-0.3258 -1.45521,-0.46598 c -1.35398,-0.43356 -1.41001,-0.48333 -0.80541,-0.71546 0.36782,-0.14123 1.0567,-0.15657 1.5875,-0.0354 0.52139,0.11906 1.35064,0.10413 1.8678,-0.0336 1.45506,-0.3876 7.13742,-0.82054 8.46016,-0.64459 1.8146,0.24138 1.97272,0.31946 1.58735,0.78379 -0.24592,0.29632 -0.92821,0.39375 -2.75735,0.39375 -1.68062,0 -2.58892,0.11578 -2.94375,0.37524 -0.28225,0.20638 -0.42694,0.46148 -0.32155,0.56687 0.1054,0.1054 0.35429,0.0566 0.5531,-0.10836 0.1988,-0.165 0.43981,-0.22165 0.53556,-0.1259 0.3678,0.3678 0.14528,0.61507 -0.55351,0.61507 -0.59972,0 -0.72761,0.11625 -0.72761,0.66145 0,0.45357 0.14552,0.66146 0.46302,0.66146 0.25467,0 0.46303,-0.17859 0.46303,-0.39687 0,-0.21828 0.10932,-0.39688 0.24294,-0.39688 0.13362,0 0.41096,-0.0645 0.61632,-0.14328 0.40145,-0.15405 1.48358,1.85738 1.16867,2.17229 -0.0943,0.0943 -0.71934,0.16325 -1.38887,0.15313 -0.88549,-0.0134 -1.36056,-0.17213 -1.74273,-0.58234 -0.34164,-0.36671 -0.70283,-0.50762 -1.03275,-0.4029 -0.29667,0.0942 -0.94106,-0.0827 -1.5517,-0.42592 -0.98818,-0.55538 -1.08021,-0.56344 -1.71151,-0.1498 -0.36694,0.24044 -0.8339,0.43716 -1.03768,0.43716 -0.20377,0 -0.66424,0.23105 -1.02325,0.51345 -0.38948,0.30637 -1.01745,0.49922 -1.55703,0.47818 -0.49736,-0.0194 -1.20195,0.0377 -1.56575,0.12682 -0.3638,0.0891 -0.90595,0.0823 -1.20478,-0.0152 z m -54.757094,-2.33487 c -0.308541,-0.47089 -0.598825,-0.62876 -0.975179,-0.53034 -0.678362,0.17739 -1.800445,-0.89405 -1.800445,-1.71919 0,-0.32711 -0.380768,-0.9876 -0.846152,-1.46775 -0.517808,-0.53424 -0.748815,-0.96333 -0.595312,-1.10578 0.7104,-0.65924 4.012664,-2.14745 4.765085,-2.14745 0.952047,0 3.713987,-0.94835 4.370127,-1.50055 0.22974,-0.19334 0.54724,-0.35153 0.70556,-0.35153 0.15831,0 0.34034,-0.14883 0.40449,-0.33073 0.0867,-0.24593 0.34036,-0.20196 0.98913,0.17149 0.80941,0.46591 0.89576,0.47036 1.1947,0.0615 0.17722,-0.24237 0.48828,-0.37695 0.69124,-0.29906 0.20296,0.0779 1.10576,0.0409 2.00621,-0.0823 1.19808,-0.16385 1.86139,-0.12963 2.4731,0.12758 0.45975,0.19331 1.15425,0.35147 1.54334,0.35147 1.31335,0 4.29498,1.81798 5.03293,3.06871 0.47711,0.80863 0.49233,0.93835 0.12655,1.07871 -0.22868,0.0878 -0.30515,0.23228 -0.16993,0.32117 0.13522,0.0889 0.31631,0.6081 0.40243,1.1538 0.1544,0.97847 0.14444,0.99219 -0.72044,0.99219 -0.48236,0 -1.0338,-0.18892 -1.22543,-0.41982 -0.25189,-0.30351 -0.60904,-0.37681 -1.28917,-0.26461 -1.41535,0.23351 -6.24172,0.1536 -7.19251,-0.11908 -0.45927,-0.13172 -0.94553,-0.1712 -1.08058,-0.0877 -0.13504,0.0835 -1.02708,0.31527 -1.9823,0.51513 -2.07771,0.43472 -3.79735,1.22752 -4.78072,2.20405 -1.080706,1.07318 -1.537059,1.15793 -2.046724,0.38008 z m 28.624954,-0.72453 c -0.12886,-0.33583 0.0158,-0.4259 0.68845,-0.42876 0.46838,-0.002 1.14925,-0.0771 1.51306,-0.16697 0.60874,-0.15034 0.62837,-0.12826 0.24626,0.27707 -0.61064,0.64774 -2.24008,0.85987 -2.44777,0.31866 z m 2.78807,0.0601 c 0.064,-0.19415 0.38817,-0.39278 0.7204,-0.4414 0.41044,-0.0601 0.56677,0.0247 0.48772,0.26458 -0.064,0.19415 -0.38817,0.39278 -0.7204,0.4414 -0.41044,0.0601 -0.56677,-0.0247 -0.48772,-0.26458 z m 1.99312,-0.9251 c 0.1819,-0.0734 0.47956,-0.0734 0.66146,0 0.1819,0.0734 0.0331,0.13346 -0.33073,0.13346 -0.3638,0 -0.51263,-0.0601 -0.33073,-0.13346 z m 2.18282,-0.0893 -0.92605,-0.19492 0.92605,-0.0162 c 0.50932,-0.009 1.16416,0.0861 1.4552,0.21116 l 0.52917,0.22739 -0.52917,-0.0162 c -0.29104,-0.009 -0.94588,-0.10395 -1.4552,-0.21116 z m 19.79414,-0.18074 c 0.19099,-0.0764 0.41919,-0.067 0.50711,0.0209 0.0879,0.0879 -0.0683,0.15045 -0.34726,0.13896 -0.30823,-0.0127 -0.37092,-0.0754 -0.15985,-0.15985 z m 18.25625,-0.79375 c 0.19099,-0.0764 0.41919,-0.067 0.50711,0.0209 0.0879,0.0879 -0.0683,0.15045 -0.34726,0.13896 -0.30823,-0.0127 -0.37092,-0.0754 -0.15985,-0.15985 z m -27.79779,-2.11116 c 0.1819,-0.0734 0.47956,-0.0734 0.66146,0 0.1819,0.0734 0.0331,0.13346 -0.33073,0.13346 -0.3638,0 -0.51263,-0.0601 -0.33073,-0.13346 z m 10.51719,-0.0894 c -0.0899,-0.14552 0.0122,-0.26458 0.2269,-0.26458 0.21473,0 0.62047,-0.31582 0.90164,-0.70181 0.29495,-0.40488 0.6401,-0.62215 0.81582,-0.51355 0.39712,0.24544 0.39008,1.02404 -0.0129,1.42702 -0.38463,0.38463 -1.70411,0.42078 -1.93146,0.0529 z m -2.24896,-0.51134 c 0,-0.48514 1.10632,-0.6124 1.54141,-0.17731 0.38903,0.38903 0.34288,0.42407 -0.55867,0.42407 -0.54051,0 -0.98274,-0.11104 -0.98274,-0.24676 z m -49.60321,-5.8585 c 0.11649,-0.36704 0.0219,-0.65989 -0.28577,-0.88488 -0.94119,-0.68821 0.58916,-3.19327 1.83881,-3.00998 0.66394,0.0974 1.37095,1.32822 1.58182,2.75381 l 0.16101,1.08848 -1.49671,0.30058 c -1.9687,0.39537 -2.00191,0.3908 -1.79916,-0.24801 z"
       id="path3" /></g></svg>
