<?xml version="1.0" encoding="UTF-8" standalone="no"?>
<!-- Generator: Adobe Illustrator 27.5.0, SVG Export Plug-In . SVG Version: 6.00 Build 0)  -->

<svg
   version="1.1"
   id="Layer_1"
   x="0px"
   y="0px"
   viewBox="0 0 525.99567 609.33594"
   xml:space="preserve"
   width="525.99567"
   height="609.33594"
   xmlns:xlink="http://www.w3.org/1999/xlink"
   xmlns="http://www.w3.org/2000/svg"
   xmlns:svg="http://www.w3.org/2000/svg"><defs
   id="defs99"><linearGradient
     id="linearGradient110"><stop
       style="stop-color:#00ffff;stop-opacity:1;"
       offset="0.37886599"
       id="stop110" /><stop
       style="stop-color:#00ffff;stop-opacity:0;"
       offset="1"
       id="stop111" /></linearGradient><linearGradient
     id="linearGradient108"><stop
       style="stop-color:#009300;stop-opacity:1;"
       offset="0"
       id="stop107" /><stop
       style="stop-color:#00b200;stop-opacity:0;"
       offset="1"
       id="stop108" /></linearGradient><radialGradient
     xlink:href="#linearGradient108"
     id="radialGradient100"
     cx="2031.917"
     cy="1397.0195"
     fx="2031.917"
     fy="1397.0195"
     r="865.31885"
     gradientTransform="matrix(1,0,0,0.66068078,0,474.03556)"
     gradientUnits="userSpaceOnUse" /><linearGradient
     xlink:href="#linearGradient110"
     id="linearGradient111"
     x1="2016.5929"
     y1="1605.0121"
     x2="2016.5929"
     y2="1839.2189"
     gradientUnits="userSpaceOnUse"
     gradientTransform="translate(-932.97587,-2091.1528)" /></defs>
<g
   id="g99"
   transform="translate(-285.01033,-159.21228)">
	
	<g
   id="g98">
		
		
		
		
		
		
		
		
		
		
		
		
		
		
		
		
		
		<g
   id="g24"><g
     id="g1"
     transform="matrix(-0.20408251,-0.02955144,-0.02837848,0.21251775,999.32157,104.4456)">
			<path
   style="fill:#ffffff"
   d="m 1618.329,1991.895 c 0,0 -158.285,87.26 -241.607,244.356 -83.322,157.096 172.606,200.059 172.606,200.059 l 183.775,-246.927"
   id="path1" />
		</g><g
     id="g2"
     transform="matrix(-0.20408251,-0.02955144,-0.02837848,0.21251775,999.32157,104.4456)"
     style="fill:#0d0d3e;fill-opacity:1">
			<path
   style="fill:#0d0d3e;fill-opacity:1"
   d="m 1549.327,2453.814 c -0.962,0 -1.929,-0.081 -2.896,-0.244 -6.162,-1.033 -151.289,-26.282 -192.808,-110.42 -17.08,-34.617 -14.512,-73.342 7.637,-115.1 84.79,-159.868 241.973,-247.818 248.618,-251.484 8.477,-4.658 19.116,-1.584 23.779,6.88 4.668,8.462 1.592,19.104 -6.87,23.774 v 0 c -1.538,0.85 -154.824,86.819 -234.6,237.232 -16.811,31.697 -19.16,58.916 -7.173,83.208 25.649,51.975 113.857,80.286 156.821,89.397 l 177.222,-238.123 c 5.781,-7.754 16.738,-9.363 24.492,-3.591 7.754,5.772 9.365,16.736 3.594,24.49 l -183.774,246.926 c -3.334,4.482 -8.569,7.053 -14.042,7.055 z"
   id="path2" />
		</g><g
     id="g3"
     style="fill:#08eace;fill-opacity:1"
     transform="matrix(-0.20408251,-0.02955144,-0.02837848,0.21251775,999.32157,104.4456)">
			<path
   style="fill:#08eace;fill-opacity:1"
   d="m 1554.461,2387.567 c -55.972,-121.197 -44.779,-329.894 109.114,-432.744 l 49.472,108.058"
   id="path3" />
		</g><g
     id="g4"
     transform="matrix(-0.20408251,-0.02955144,-0.02837848,0.21251775,999.32157,104.4456)"
     style="fill:#0d0d3e;fill-opacity:1">
			<path
   style="fill:#0d0d3e;fill-opacity:1"
   d="m 1554.473,2405.074 c -6.616,0 -12.944,-3.767 -15.899,-10.168 -64.092,-138.76 -38.242,-352.036 115.274,-454.636 8.037,-5.361 18.906,-3.21 24.277,4.827 5.371,8.037 3.213,18.909 -4.824,24.28 -152.578,101.973 -151.631,305.444 -102.949,410.852 4.053,8.774 0.225,19.175 -8.55,23.23 -2.378,1.095 -4.873,1.615 -7.329,1.615 z"
   id="path4" />
		</g><g
     id="g5"
     transform="matrix(-0.20408251,-0.02955144,-0.02837848,0.21251775,999.32157,104.4456)">
			<path
   style="fill:#08eace;fill-opacity:1"
   d="m 2606.396,3115.478 c -279.047,423.888 -927.459,361.794 -1030.247,-170.219 -0.919,-4.988 -1.838,-9.977 -2.713,-15.009 l 173.021,-234.195 c 0,0 284.254,-67.52 456.137,-50.497 171.883,17.021 300.707,131.406 320.705,143.265 10.371,6.17 32.425,94.124 51.197,177.221 17.329,76.839 31.9,149.434 31.9,149.434 z"
   id="path5" />
		</g><g
     id="g6"
     transform="matrix(-0.20408251,-0.02955144,-0.02837848,0.21251775,999.32157,104.4456)">
			<path
   style="fill:#ffffff"
   d="m 2807.791,2009.492 c 0,0 72.959,870.969 -178.289,1094.41 -21.994,19.56 -56.19,15.993 -73.038,-8.141 -11.351,-16.261 -24.083,-37.702 -35.092,-64.095 -44.119,-105.772 -159.483,-134.413 -222.625,-161.92 l -752.933,-185.254 c 0,0 -40.793,-505.138 175.323,-720.386 216.116,-215.248 702.772,-60.679 702.772,-60.679"
   id="path6" />
		</g><g
     id="g7"
     transform="matrix(-0.20408251,-0.02955144,-0.02837848,0.21251775,999.32157,104.4456)">
			<path
   style="fill:#3a9def"
   d="m 2606.396,3115.478 c -279.047,423.888 -927.459,361.794 -1030.247,-170.219 l 49.622,17.416 c 134.163,395.007 605.09,417.017 878.362,36.407 l 70.363,-33.038 c 17.329,76.839 31.9,149.434 31.9,149.434 z"
   id="path7" />
		</g><g
     id="g8"
     transform="matrix(-0.20408251,-0.02955144,-0.02837848,0.21251775,999.32157,104.4456)"
     style="fill:#0d0d3e;fill-opacity:1">
			<path
   style="fill:#0d0d3e;fill-opacity:1"
   d="m 2103.023,3411.773 c -39.805,0 -79.536,-4.075 -118.706,-12.275 -226.23,-47.356 -386.274,-221.672 -428.13,-466.296 -1.631,-9.529 4.771,-18.574 14.297,-20.205 9.6,-1.624 18.574,4.778 20.205,14.302 39.341,229.919 189.17,393.635 400.801,437.937 229.336,48.008 464.98,-53.796 600.298,-259.363 5.317,-8.081 16.177,-10.31 24.243,-4.995 8.076,5.315 10.313,16.169 4.995,24.243 -72.354,109.917 -172.817,193.403 -290.522,241.436 -73.58,30.026 -150.645,45.216 -227.481,45.216 z"
   id="path8" />
		</g><g
     id="g9"
     transform="matrix(-0.20408251,-0.02955144,-0.02837848,0.21251775,999.32157,104.4456)"
     style="fill:#c9e1f7;fill-opacity:1">
			<path
   style="fill:#c9e1f7;fill-opacity:1"
   d="m 2606.398,2260.056 c 18.248,129.35 -54.654,596.295 -136.219,659.657 -7.046,5.47 -14.966,12.34 -23.455,20.391 30.675,22.142 57.849,51.197 74.652,91.542 11.027,26.43 23.717,47.872 35.094,64.106 16.847,24.155 51.022,27.699 73.032,8.139 251.261,-223.43 178.271,-1094.397 178.271,-1094.397 l -314.359,-86.86 -97.319,223.824 c 0,10e-4 192.056,-15.708 210.303,113.598 z"
   id="path9" />
		</g><g
     id="g10"
     transform="matrix(-0.20408251,-0.02955144,-0.02837848,0.21251775,999.32157,104.4456)"
     style="fill:#0d0d3e;fill-opacity:1">
			<path
   style="fill:#0d0d3e;fill-opacity:1"
   d="m 2596.406,3134.012 c -2.598,0 -5.21,-0.151 -7.817,-0.459 -18.76,-2.209 -35.698,-12.332 -46.475,-27.771 -14.492,-20.757 -26.904,-43.425 -36.895,-67.378 -34.434,-82.549 -118.716,-115.31 -180.254,-139.229 -11.357,-4.414 -22.109,-8.594 -31.831,-12.783 L 1541.635,2701.49 c -7.319,-1.799 -12.661,-8.079 -13.267,-15.588 -1.694,-20.955 -38.926,-515.737 180.415,-734.197 92.1,-91.726 246.367,-131.873 446.157,-116.106 148.97,11.76 269.219,49.544 274.263,51.145 9.214,2.925 14.307,12.764 11.382,21.978 -2.92,9.209 -12.764,14.312 -21.973,11.387 -4.775,-1.511 -479.087,-148.826 -685.122,56.401 -189.37,188.606 -175.347,615.474 -171.021,694.055 l 740.454,182.185 c 0.962,0.237 1.904,0.554 2.813,0.95 9.434,4.111 20.352,8.354 31.909,12.847 67.402,26.199 159.712,62.08 199.878,158.381 9.033,21.646 20.234,42.107 33.291,60.815 5.137,7.356 12.9,11.987 21.865,13.044 9.141,1.084 18.291,-1.831 25.19,-7.964 241.909,-215.137 173.203,-1071.248 172.48,-1079.871 -0.806,-9.631 6.348,-18.096 15.981,-18.901 9.658,-0.784 18.096,6.35 18.901,15.981 0.186,2.188 18.188,221.76 5.112,465.811 -17.734,330.869 -81.396,547.253 -189.214,643.137 -12.389,11.024 -28.346,17.032 -44.723,17.032 z"
   id="path10" />
		</g><g
     id="g11"
     style="fill:#08eace;fill-opacity:1"
     transform="matrix(-0.20408251,-0.02955144,-0.02837848,0.21251775,999.32157,104.4456)">
			<path
   style="fill:#08eace;fill-opacity:1"
   d="m 2440.655,2104.712 c -175.757,193.983 -569.365,203.965 -655.507,-69.001"
   id="path11" />
		</g><g
     id="g12"
     transform="matrix(-0.20408251,-0.02955144,-0.02837848,0.21251775,999.32157,104.4456)">
			<path
   style="fill:#ffffff"
   d="m 1876.6,2082.956 c 0,0 52.888,85.899 162.5,85.941 109.612,0.042 184.596,-26.059 184.137,-38.147 -0.459,-12.088 -134.53,-20.831 -134.53,-20.831"
   id="path12" />
		</g><g
     id="g13"
     transform="matrix(-0.20408251,-0.02955144,-0.02837848,0.21251775,999.32157,104.4456)"
     style="fill:#0d0d3e;fill-opacity:1">
			<path
   style="fill:#0d0d3e;fill-opacity:1"
   d="m 2104.61,2263.573 c -31.86,0 -63.506,-3.232 -94.185,-9.939 -121.118,-26.479 -207.051,-102 -241.968,-212.654 -2.91,-9.219 2.202,-19.05 11.421,-21.961 9.229,-2.91 19.053,2.207 21.963,11.423 30.982,98.188 107.715,165.305 216.06,188.992 145.102,31.711 313.579,-20.295 409.785,-126.475 6.489,-7.161 17.563,-7.71 24.722,-1.218 7.163,6.492 7.71,17.561 1.216,24.724 -83.819,92.51 -218.121,147.108 -349.014,147.108 z"
   id="path13" />
		</g><g
     id="g14"
     transform="matrix(-0.20408251,-0.02955144,-0.02837848,0.21251775,999.32157,104.4456)"
     style="fill:#0d0d3e;fill-opacity:1">
			<path
   style="fill:#0d0d3e;fill-opacity:1"
   d="m 2266.002,2129.833 c -17.163,15.949 -37.907,27.319 -59.471,36.038 -62.371,25.151 -131.612,22.857 -195.859,6.95 -11.603,-2.715 -8.546,-19.923 3.388,-18.309 30.625,5.609 62.27,9.525 93.38,7.105 35.307,-1.982 70.647,-11.009 101.609,-27.845 12.509,-6.799 24.705,-15.012 34.747,-25.037 14.283,-15.786 37.277,5.91 22.206,21.098 z"
   id="path14" />
		</g><g
     id="g15"
     transform="matrix(-0.20408251,-0.02955144,-0.02837848,0.21251775,999.32157,104.4456)"
     style="fill:#0d0d3e;fill-opacity:1">
			<path
   style="fill:#0d0d3e;fill-opacity:1"
   d="m 1884.897,2064.994 c 8.902,27.612 30.793,50.59 57.684,61.535 10.443,4.822 4.458,20.672 -6.543,17.41 -35.304,-9.711 -65.533,-35.951 -80.343,-69.548 -7.57,-20.65 23.293,-30.612 29.202,-9.397 z"
   id="path15" />
		</g><g
     id="g37"
     transform="matrix(-0.20408251,-0.02955144,-0.02837848,0.21251775,999.32157,104.4456)">
			<g
   id="g16">
				<path
   style="fill:#cad3e0"
   d="m 2007.694,2838.575 c -33.3,33.87 -233.013,106.771 -322.849,121.517 -69.401,11.421 -136.833,-17.854 -163.919,-31.725 -8.008,-4.113 -12.471,-6.869 -12.471,-6.869 l -478.892,-107.208 377.547,-206.583 600.584,158.011 c 0,0 4.857,5.689 9.014,14.659 6.74,14.44 11.553,37.325 -9.014,58.198 z"
   id="path16" />
			</g>
			<g
   id="g17">
				<path
   style="fill:#a7b9ce"
   d="m 2007.694,2838.575 c -33.3,33.87 -233.013,106.771 -322.849,121.517 -69.401,11.421 -136.833,-17.854 -163.919,-31.725 24.461,-7.482 55.004,-9.67 77.277,-1.618 60.037,21.792 201.201,-38.245 268.895,-57.017 67.694,-18.772 36.188,-64.85 36.188,-64.85 l 70.976,-43.934 c 0.482,-2.362 15.184,3.72 42.446,19.429 6.74,14.44 11.553,37.325 -9.014,58.198 z"
   id="path17" />
			</g>
			<g
   id="g18">
				<path
   style="fill:#052366"
   d="m 1652.261,2980.203 c -73.228,0 -136.558,-34.248 -150.327,-42.236 l -476.211,-106.592 c -7.109,-1.592 -12.49,-7.419 -13.511,-14.634 -1.016,-7.214 2.539,-14.304 8.931,-17.8 l 377.554,-206.589 c 3.926,-2.146 8.53,-2.71 12.856,-1.572 l 600.61,158.005 c 3.457,0.908 6.548,2.852 8.867,5.571 15.117,17.729 34.394,60.72 -0.845,96.521 -38.843,39.458 -248.399,112.686 -332.51,126.504 -11.942,1.961 -23.807,2.822 -35.414,2.822 z m -134.619,-73.618 c 0.811,0.5 82.285,49.727 164.36,36.25 90.752,-14.907 283.96,-86.777 313.232,-116.516 17.012,-17.278 7.959,-36.45 2.119,-45.234 l -587.969,-154.678 -330.698,180.952 433.608,97.056 c 1.891,0.422 3.697,1.157 5.348,2.17 z"
   id="path18" />
			</g>
			<g
   id="g25">
				<g
   id="g19"
   style="fill:#d2d2dd;fill-opacity:1">
					<path
   style="fill:#d2d2dd;fill-opacity:1"
   d="m 1625.772,2883.69 c 0.481,28.268 -24.33,50.322 -52.335,46.56 l -642.285,-86.554 c -16.453,-2.232 -30.456,-13.041 -36.669,-28.443 -21.879,-54.479 -42.796,-109.571 -62.706,-165.275 -0.788,-2.056 -1.313,-3.588 -1.575,-4.42 -0.175,-0.482 -0.263,-0.743 -0.263,-0.743 -69.313,-194.594 -126.374,-396.758 -170.132,-607.148 -5.776,-27.743 14.571,-53.954 42.839,-55.53 253.186,-14.309 493.813,49.622 728.446,151.361 10.852,4.681 19.472,13.39 24.067,24.286 3.15,7.439 6.257,14.833 9.32,22.272 0,0 0.044,0.131 0.131,0.438 96.312,232.881 157.355,467.033 161.162,703.196 z"
   id="path19" />
				</g>
				<g
   id="g20">
					
						
				</g>
				<g
   id="g21"
   style="fill:#afc7ed;fill-opacity:1">
					<path
   style="fill:#afc7ed;fill-opacity:1"
   d="m 1625.772,2883.69 c 0.481,28.268 -24.33,50.322 -52.335,46.56 l -642.285,-86.554 c -16.453,-2.232 -30.456,-13.041 -36.669,-28.443 -21.879,-54.479 -42.796,-109.571 -62.706,-165.275 8.752,23.061 49.491,116.747 141.777,138.845 105.458,25.249 555.775,135.958 569.209,-83.448 13.084,-214.591 -74.345,-512.017 -78.152,-524.881 96.311,232.881 157.354,467.033 161.161,703.196 z"
   id="path20" />
				</g>
				<g
   id="g22"
   style="fill:#0d0d3e;fill-opacity:1">
					<path
   style="fill:#0d0d3e;fill-opacity:1"
   d="m 1579.624,2948.167 c -2.832,0 -5.679,-0.19 -8.525,-0.574 l -642.295,-86.55 c -22.676,-3.057 -42.046,-18.093 -50.552,-39.246 -100.757,-250.696 -180.024,-513.308 -235.606,-780.545 -3.769,-18.142 0.537,-36.975 11.816,-51.675 11.348,-14.788 28.56,-23.872 47.217,-24.927 v 0 c 231.904,-13.083 465.835,35.464 736.382,152.786 15.029,6.519 26.821,18.418 33.203,33.511 112.046,264.69 168.315,504.282 172.021,732.461 0.303,18.586 -7.495,36.328 -21.387,48.674 -11.737,10.431 -26.785,16.085 -42.274,16.085 z M 703.653,1999.603 v 0 c -8.472,0.479 -16.279,4.595 -21.421,11.292 -5.146,6.704 -7.031,14.954 -5.308,23.23 55.156,265.22 133.823,525.838 233.809,774.614 3.813,9.485 12.529,16.235 22.749,17.612 l 642.295,86.55 c 8.276,1.123 16.611,-1.431 22.866,-6.985 6.265,-5.564 9.78,-13.56 9.643,-21.938 -3.638,-223.596 -58.999,-458.911 -169.258,-719.387 -2.866,-6.775 -8.154,-12.112 -14.892,-15.034 -265.351,-115.064 -494.302,-162.73 -720.483,-149.954 z"
   id="path21" />
				</g>
				<g
   id="g23">
					<path
   style="fill:#a7b9ce"
   d="m 829.938,2644.814 c 0.044,0.262 0.131,0.524 0.263,0.743 -0.175,-0.481 -0.263,-0.743 -0.263,-0.743 z"
   id="path22" />
				</g>
				
			</g>
			<g
   id="g32">
				<g
   id="g26"
   style="fill:#ffffff;fill-opacity:1">
					<path
   style="fill:#ffffff;fill-opacity:1"
   d="m 1072.511,2799.106 c 0,0 -48.821,-18.227 -61.189,23.434 -12.368,41.661 4.882,88.855 30.595,108.709 25.712,19.854 59.236,-15.623 59.236,-15.623"
   id="path25" />
				</g>
				<g
   id="g27"
   style="fill:#0d0d3e;fill-opacity:1">
					<path
   style="fill:#0d0d3e;fill-opacity:1"
   d="m 1059.361,2954.913 c -9.443,0 -19.053,-2.793 -28.145,-9.812 -29.805,-23.018 -51.67,-77.017 -36.67,-127.542 4.634,-15.62 14.038,-27.341 27.183,-33.894 24.746,-12.336 53.682,-2.156 56.904,-0.955 9.058,3.381 13.657,13.462 10.274,22.52 -3.369,9.028 -13.379,13.638 -22.446,10.303 -4.58,-1.653 -19.732,-5.271 -29.194,-0.498 -2.754,1.392 -6.704,4.202 -9.165,12.485 -10.244,34.524 4.399,74.343 24.512,89.875 12.232,9.429 35.635,-13.596 35.859,-13.835 6.665,-6.96 17.729,-7.244 24.727,-0.591 6.982,6.648 7.3,17.668 0.674,24.678 -11.53,12.2 -32.575,27.266 -54.513,27.266 z"
   id="path26" />
				</g>
				<g
   id="g28"
   style="fill:#ffffff;fill-opacity:1">
					<path
   style="fill:#ffffff;fill-opacity:1"
   d="m 1290.801,2904.125 c 0,0 -33.431,80.735 -117.185,23.018 0,0 -38.595,39.032 -80.69,-5.208 -13.084,-13.74 -22.492,-33.081 -28.093,-53.779 -12.471,-45.903 -6.126,-98.588 21.135,-112.021 31.987,-15.797 57.717,-4.288 73.252,30.193 3.632,8.052 6.739,17.416 9.189,27.962 0,0 5.645,-43.19 42.096,-43.409 28.268,-0.174 40.214,20.436 46.209,45.071 1.707,7.132 2.932,14.616 3.938,22.011 4.332,32.95 30.149,66.162 30.149,66.162 z"
   id="path27" />
				</g>
				<g
   id="g29">
					<path
   style="fill:#c9e1f7"
   d="m 1290.801,2904.125 c 0,0 -33.431,80.735 -117.185,23.018 0,0 -38.595,39.032 -80.69,-5.208 -13.084,-13.74 -22.492,-33.081 -28.093,-53.779 1.925,-3.107 3.107,-4.813 3.107,-4.813 0,0 19.56,42.095 55.573,40.345 36.013,-1.751 29.493,-113.028 29.493,-113.028 l 16.103,67.869 c 0,0 17.328,44.721 49.666,36.057 32.294,-8.708 24.286,-74.214 24.286,-74.214 l 13.653,-4.42 c 1.707,7.132 2.932,14.616 3.938,22.011 4.332,32.95 30.149,66.162 30.149,66.162 z"
   id="path28" />
				</g>
				<g
   id="g30"
   style="fill:#0d0d3e;fill-opacity:1">
					<path
   style="fill:#0d0d3e;fill-opacity:1"
   d="m 1229.532,2965.465 c -17.402,0 -35.781,-5.667 -54.946,-16.958 -9.014,5.82 -22.827,12.209 -39.658,12.034 -19.722,-0.193 -38.13,-9.128 -54.707,-26.558 -33.901,-35.654 -44.155,-96.497 -36.758,-138.171 4.854,-27.378 16.87,-46.519 34.741,-55.356 26.797,-13.257 47.202,-9.06 59.609,-3.208 13.11,6.182 24.18,17.366 32.861,33.008 9.248,-9.658 22.183,-16.753 39.736,-16.858 0.156,0 0.317,0 0.474,0 56.289,0 64.141,59.739 67.104,82.271 3.052,23.191 20.254,49.526 26.626,57.717 3.862,4.966 4.761,11.626 2.354,17.439 -0.674,1.633 -16.987,40.098 -55.527,51.492 -7.11,2.1 -14.419,3.15 -21.909,3.15 z m -55.904,-55.84 c 3.447,0 6.914,1.013 9.927,3.088 22.353,15.403 41.855,20.784 57.959,16.03 14.189,-4.194 23.672,-15.596 28.726,-23.418 -8.818,-13.359 -23.506,-38.882 -26.958,-65.093 -5.664,-43.054 -16.607,-51.831 -32.407,-51.831 -0.088,0 -0.171,0 -0.259,0 -20.225,0.122 -24.443,25.388 -24.854,28.269 -1.201,8.328 -8.164,14.685 -16.572,15.054 -8.247,0.359 -15.889,-5.242 -17.813,-13.435 -6.108,-26.057 -16.226,-43.594 -28.496,-49.38 -7.891,-3.723 -17.705,-2.744 -29.16,2.925 -7.28,3.601 -13.037,14.568 -15.791,30.093 -5.796,32.661 2.964,81.963 27.661,107.93 9.8,10.308 19.785,15.581 29.678,15.679 0.093,0 0.19,0 0.283,0 14.38,0 25.517,-10.61 25.625,-10.718 3.394,-3.43 7.905,-5.195 12.451,-5.195 z"
   id="path29" />
				</g>
				<g
   id="g31"
   style="fill:#0d0d3e;fill-opacity:1">
					<path
   style="fill:#0d0d3e;fill-opacity:1"
   d="m 1185.775,2816.554 c -3.795,14.568 -6.72,32.231 -4.517,46.882 0.866,5.839 -3.166,11.273 -9.005,12.139 -4.855,0.719 -9.432,-1.958 -11.334,-6.234 -6.227,-14.374 -8.037,-28.004 -9.317,-42.805 -0.35,-4.969 -0.625,-9.726 -0.533,-15.17 1.753,-26.628 40.812,-20.804 34.706,5.188 z"
   id="path30" />
				</g>
			</g>
			<g
   id="g33">
				<path
   style="fill:#052366"
   d="m 1664.58,2906.756 c -4.526,0 -9.058,-0.513 -13.525,-1.538 l -28.701,-6.597 c -8.242,-1.895 -13.389,-10.115 -11.494,-18.357 1.894,-8.247 10.083,-13.376 18.359,-11.497 l 28.696,6.597 c 5.6,1.289 11.431,0.925 16.836,-1.047 l 187.1,-68.333 c 7.925,-2.893 16.738,1.184 19.639,9.133 2.905,7.944 -1.187,16.738 -9.131,19.641 l -187.099,68.33 c -6.676,2.438 -13.668,3.668 -20.68,3.668 z"
   id="path32" />
			</g>
			<g
   id="g34">
				<path
   style="fill:#052366"
   d="m 1840.547,2823.99 c -0.967,0 -1.948,-0.129 -2.925,-0.4 l -214.878,-59.507 c -5.82,-1.611 -9.233,-7.639 -7.622,-13.462 1.616,-5.823 7.646,-9.241 13.462,-7.622 l 214.878,59.507 c 5.82,1.611 9.233,7.639 7.622,13.462 -1.343,4.846 -5.742,8.022 -10.537,8.022 z"
   id="path33" />
			</g>
			<g
   id="g35">
				<path
   style="fill:#052366"
   d="m 1769.82,2866.844 c -0.952,0 -1.924,-0.127 -2.891,-0.391 l -144.15,-39.417 c -5.825,-1.594 -9.258,-7.61 -7.666,-13.438 1.592,-5.823 7.588,-9.265 13.438,-7.666 l 144.15,39.417 c 5.825,1.594 9.258,7.61 7.666,13.438 -1.329,4.861 -5.738,8.057 -10.547,8.057 z"
   id="path34" />
			</g>
			<g
   id="g36">
				<path
   style="fill:#052366"
   d="m 1666.841,2831.314 c -3.833,0 -7.554,-2.019 -9.556,-5.601 -2.949,-5.273 -1.069,-11.938 4.204,-14.888 l 66.27,-37.078 c 5.264,-2.959 11.938,-1.067 14.888,4.204 2.949,5.273 1.069,11.938 -4.204,14.888 l -66.27,37.078 c -1.689,0.948 -3.525,1.397 -5.332,1.397 z"
   id="path35" />
			</g>
		</g><g
     id="g57"
     transform="matrix(0.20604613,0,0,0.21456253,135.69107,42.217515)">
			<g
   id="g38"
   style="fill:#08eace;fill-opacity:1"
   transform="matrix(-0.99046998,-0.13772878,-0.13772878,0.99046998,4191.4426,290.0231)">
				
					<path
   id="ellipse37"
   transform="matrix(0.26,-0.9656,0.9656,0.26,-97.254,4406.356)"
   d="m 3063.114,2266.6289 a 236.946,181.61501 0 0 1 -236.946,181.615 236.946,181.61501 0 0 1 -236.946,-181.615 236.946,181.61501 0 0 1 236.946,-181.615 236.946,181.61501 0 0 1 236.946,181.615 z" />
			</g>
			<g
   style="opacity:0.6"
   id="g39"
   transform="matrix(-0.99046998,-0.13772878,-0.13772878,0.99046998,4191.4426,290.0231)">
				<path
   style="fill:#ffffff"
   d="m 2731.743,2083.106 c 0,0 -60.93,73.295 -51.383,113.22 9.547,39.925 51.208,-11.283 79.85,-36.453 28.642,-25.17 69.001,-30.812 65.963,-40.359 -3.038,-9.547 34.146,-82.888 -51.277,-61.189"
   id="path38" />
			</g>
			<g
   id="g40"
   transform="matrix(-0.99046998,-0.13772878,-0.13772878,0.99046998,4191.4426,290.0231)"
   style="fill:#0d0d3e;fill-opacity:1">
				<path
   style="fill:#0d0d3e;fill-opacity:1"
   d="m 2801.743,2517.85 c -14.033,0 -28.003,-1.826 -41.724,-5.52 -106.021,-28.545 -162.598,-161.987 -126.123,-297.468 36.479,-135.483 152.437,-222.473 258.423,-193.933 106.016,28.543 162.593,161.985 126.118,297.466 -17.446,64.81 -53.379,120.674 -101.177,157.3 -36.254,27.782 -76.137,42.155 -115.517,42.155 z m 49.024,-467.395 c -77.676,0 -155.469,71.003 -183.071,173.508 -31.455,116.841 14.043,231.038 101.426,254.563 41.47,11.169 86.509,0.295 126.851,-30.62 41.719,-31.968 73.208,-81.196 88.667,-138.613 31.455,-116.841 -14.043,-231.035 -101.421,-254.561 -10.719,-2.886 -21.588,-4.277 -32.452,-4.277 z"
   id="path39" />
			</g>
			<g
   id="g41"
   transform="matrix(-0.99046998,-0.13772878,-0.13772878,0.99046998,4191.4426,290.0231)"
   style="fill:#fbfbfe;fill-opacity:1">
				<path
   style="fill:#fbfbfe;fill-opacity:1"
   d="m 2736.359,2800.418 c -57.324,10.108 -100.382,9.802 -132.194,2.056 -95.306,-23.148 -89.967,-112.941 -66.075,-188.773 3.194,-10.108 6.695,-19.91 10.371,-29.318 18.597,-48.047 40.783,-84.717 40.783,-84.717 0,0 67.257,-22.141 105.02,-110.665 37.72,-88.523 -8.27,-196.562 131.931,-269.507 67.738,-35.226 110.009,-12.778 135.651,19.778 27.393,34.876 35.751,81.347 35.751,81.347 0,0 107.163,514.687 -261.238,579.799 z"
   id="path40" />
			</g>
			<g
   id="g42"
   transform="matrix(-0.99046998,-0.13772878,-0.13772878,0.99046998,4191.4426,290.0231)">
				<path
   style="fill:#c9e1f7"
   d="m 2736.359,2800.418 c -57.324,10.108 -100.382,9.802 -132.194,2.056 -40.477,-84.803 -62.925,-152.453 -66.075,-188.773 -1.619,-18.51 1.794,-28.925 10.327,-29.318 h 0.044 l 129.306,-25.073 c 5.601,4.857 118.895,103.64 197.875,48.397 123.456,-86.351 154.248,-378.73 87.517,-466.64 -0.481,-0.613 -0.919,-1.225 -1.313,-1.795 27.393,34.876 35.751,81.347 35.751,81.347 0,0 107.163,514.687 -261.238,579.799 z"
   id="path41" />
			</g>
			<g
   id="g43"
   transform="matrix(-0.99046998,-0.13772878,-0.13772878,0.99046998,4191.4426,290.0231)"
   style="fill:#0d0d3e;fill-opacity:1">
				<path
   style="fill:#0d0d3e;fill-opacity:1"
   d="m 2657.91,2825.582 c -63.105,0 -107.148,-17.764 -131.387,-53.135 -64.473,-94.072 43.115,-274.216 47.729,-281.838 2.148,-3.55 5.483,-6.218 9.414,-7.537 2.485,-0.85 60.601,-21.497 94.482,-100.933 10.786,-25.298 14.185,-52.849 17.783,-82.017 8.193,-66.414 17.476,-141.687 122.163,-196.138 43.857,-22.808 83.154,-26.006 116.782,-9.473 62.725,30.823 79.263,119.272 79.937,123.022 2.354,11.252 58.35,288.794 -61.641,465.967 -49.194,72.639 -121.123,117.771 -213.784,134.143 -29.964,5.295 -57.142,7.939 -81.478,7.939 z m -56.66,-311.861 c -29.351,50.586 -87.378,178.391 -45.835,238.958 25.127,36.646 84.976,46.907 177.881,30.493 82.949,-14.656 147.153,-54.763 190.835,-119.211 111.694,-164.802 56.885,-437.039 56.318,-439.771 -0.22,-1.189 -14.272,-75.383 -61.104,-98.306 -23.071,-11.292 -51.699,-8.215 -85.098,9.158 -88.35,45.952 -95.742,105.898 -103.574,169.365 -3.735,30.295 -7.598,61.624 -20.327,91.465 -33.822,79.307 -89.931,109.524 -109.096,117.849 z"
   id="path42" />
			</g>
			<g
   id="g44"
   style="fill:#08eace;fill-opacity:1"
   transform="matrix(-0.99046998,-0.13772878,-0.13772878,0.99046998,4191.4426,290.0231)">
				<path
   style="fill:#08eace;fill-opacity:1"
   d="m 1966.918,2329.119 c 0,0 73.557,-33.198 117.171,-22.132 43.614,11.066 505.138,192.681 505.138,192.681 0,0 244.107,120.427 173.804,297.484 -61.84,157.53 -573.162,135.399 -735.575,29.293"
   id="path43" />
			</g>
			<g
   style="opacity:0.6"
   id="g45"
   transform="matrix(-0.99046998,-0.13772878,-0.13772878,0.99046998,4191.4426,290.0231)">
				<path
   style="fill:#ffffff"
   d="m 2766.115,2788.823 c 16.453,-151.317 -185.579,-250.955 -185.579,-250.955 0,0 -461.52,-181.641 -505.146,-192.711 -32.425,-8.227 -81.478,8.051 -104.451,16.978 l -4.026,-32.994 c 0,0 73.558,-33.212 117.185,-22.142 43.627,11.071 505.146,192.668 505.146,192.668 0,0 236.469,116.659 176.871,289.156 z"
   id="path44" />
			</g>
			<g
   id="g46"
   transform="matrix(-0.99046998,-0.13772878,-0.13772878,0.99046998,4191.4426,290.0231)">
				<path
   style="fill:#3a9def"
   d="m 2763.051,2797.136 c -61.874,157.53 -573.191,135.432 -735.578,29.318 l -16.409,-134.775 -44.152,-362.539 c 0,0 11.027,-4.989 27.043,-10.459 l 18.991,372.778 c 154.554,117.273 663.071,175.252 735.797,22.491 7.133,-14.833 11.902,-29.406 14.659,-43.627 14.877,37.59 18.116,80.255 -0.351,126.813 z"
   id="path45" />
			</g>
			<g
   id="g47"
   transform="matrix(-0.99046998,-0.13772878,-0.13772878,0.99046998,4191.4426,290.0231)"
   style="fill:#0d0d3e;fill-opacity:1">
				<path
   style="fill:#0d0d3e;fill-opacity:1"
   d="m 2425.352,2928.204 c -155.752,0 -322.949,-31.887 -407.471,-87.104 -8.091,-5.288 -10.366,-16.133 -5.078,-24.226 5.293,-8.096 16.138,-10.361 24.229,-5.081 121.045,79.082 437.837,107.214 605.303,53.757 56.128,-17.917 92.231,-43.782 104.404,-74.792 61.924,-155.952 -151.841,-268.525 -164.683,-275.1 -159.497,-62.761 -468.677,-183.179 -502.275,-191.704 -30.806,-7.813 -86.724,12.6 -105.669,21.123 -8.813,3.962 -19.175,0.042 -23.145,-8.767 -3.97,-8.811 -0.054,-19.167 8.75,-23.145 8.106,-3.655 80.523,-35.359 128.677,-23.142 44.18,11.211 488.359,185.925 507.246,193.359 0.449,0.178 0.898,0.374 1.333,0.588 2.598,1.282 64.233,32.002 117.9,85.667 73.672,73.674 95.952,154.583 64.429,233.977 -16.362,41.672 -58.867,73.752 -126.318,95.283 -62.608,19.988 -143.457,29.304 -227.632,29.307 z"
   id="path46" />
			</g>
			<g
   id="g56"
   transform="matrix(-0.99046998,-0.13772878,-0.13772878,0.99046998,4191.4426,290.0231)">
				<g
   id="g48"
   style="fill:#ffffff;fill-opacity:1">
					<path
   style="fill:#ffffff;fill-opacity:1"
   d="m 2226.662,2685.859 c 0,0 -60.168,123.092 -164.838,159.455 -69.313,24.111 -109.221,-8.008 -124.405,-44.896 0,0 -114.559,34.7 -147.991,-50.803 0,0 -89.398,-4.77 -103.27,-93.293 -13.696,-87.254 57.761,-181.291 59.818,-183.96 -2.538,0.962 -91.98,35.226 -124.055,41.614 -32.556,6.52 -85.504,-44.24 -39.514,-103.269 10.546,-13.521 28.924,-27.437 52.685,-40.258 0.044,-0.044 0.087,-0.044 0.087,-0.044 79.99,-43.233 221.024,-74.696 331.732,-41.264 0,0 194.594,38.814 247.41,228.594 10.284,36.757 15.185,79.203 12.341,128.124 z"
   id="path47" />
				</g>
				<g
   id="g49">
					<path
   style="fill:#c9e1f7"
   d="m 2226.662,2685.859 c 0,0 -60.168,123.092 -164.838,159.455 -69.313,24.111 -109.221,-8.008 -124.405,-44.896 0,0 -114.559,34.7 -147.991,-50.803 0,0 -89.398,-4.77 -103.27,-93.293 -13.696,-87.254 57.761,-181.291 59.818,-183.96 -2.538,0.962 -91.98,35.226 -124.055,41.614 -32.556,6.52 -85.504,-44.24 -39.514,-103.269 10.546,-13.521 28.924,-27.437 52.685,-40.258 -1.838,1.619 -38.464,33.607 -21.004,65.856 17.897,33.082 184.923,-16.015 184.923,-16.015 0,0 -78.459,118.104 -56.667,194.287 21.442,74.871 81.04,2.495 83.053,0.044 -0.963,2.056 -30.981,65.462 26.649,110.271 58.549,45.553 117.841,-21.354 117.841,-21.354 0,0 -41.045,74.433 63.756,85.154 104.758,10.72 105.458,-124.974 105.458,-124.974 0,0 33.037,-61.043 75.22,-105.983 10.284,36.757 15.185,79.203 12.341,128.124 z"
   id="path48" />
				</g>
				<g
   id="g50"
   style="fill:#0d0d3e;fill-opacity:1">
					<path
   style="fill:#0d0d3e;fill-opacity:1"
   d="m 2017.227,2871.068 c -43.325,0 -73.062,-22.988 -89.155,-50.249 -45.825,9.614 -119.351,7.258 -150.537,-54.885 -37.71,-5.938 -97.158,-33.403 -108.682,-106.89 -8.848,-56.409 14.072,-114.053 34.79,-152.4 -27.896,9.954 -60.732,20.996 -78.296,24.509 -23.677,4.736 -51.914,-9.729 -67.134,-34.392 -8.648,-14.004 -24.937,-51.472 10.405,-96.814 52.09,-66.836 252.959,-132.607 402.617,-87.808 8.896,1.902 76.558,17.61 142.793,68.433 64.604,49.57 139.619,142.947 130.093,306.287 -0.137,2.317 -0.732,4.583 -1.748,6.667 -2.588,5.291 -64.59,130.032 -174.78,168.325 -18.442,6.409 -35.239,9.214 -50.366,9.217 z m -79.839,-88.157 c 6.934,0 13.443,4.131 16.206,10.833 7.651,18.589 32.964,59.204 102.505,35.042 87.671,-30.469 143.452,-129.128 153.271,-147.642 5.923,-117.095 -33.315,-208.855 -116.65,-272.798 -63.164,-48.464 -128.574,-61.931 -129.224,-62.061 -0.552,-0.11 -1.099,-0.247 -1.641,-0.41 -140.913,-42.568 -326.479,25.364 -365.63,75.591 -15.601,20.017 -18.521,40.227 -8.228,56.907 8.071,13.071 22.29,20.095 30.483,18.455 30.723,-6.145 120.376,-40.491 121.274,-40.837 7.314,-2.817 15.625,-0.405 20.317,5.891 4.683,6.296 4.604,14.941 -0.195,21.152 -0.679,0.884 -68.975,90.706 -56.445,170.586 11.558,73.674 83.853,78.374 86.924,78.538 6.86,0.366 12.871,4.709 15.371,11.106 27.08,69.272 122.588,41.599 126.636,40.386 1.667,-0.5 3.361,-0.739 5.026,-0.739 z m 289.258,-97.07 h 0.049 z"
   id="path49" />
				</g>
				<g
   id="g51"
   style="fill:#08eace;fill-opacity:1">
					<path
   style="fill:#08eace;fill-opacity:1"
   d="m 1966.918,2329.119 c 0,0 -69.914,-3.905 -70.976,13.887 -1.062,17.792 149.524,62.057 185.978,180.53 36.453,118.473 28.208,142.775 88.095,163.606 59.888,20.83 56.633,-1.302 56.633,-1.302 13.669,-187.473 -100.969,-331.672 -259.73,-356.721 z"
   id="path50" />
				</g>
				<g
   id="g52"
   style="fill:#0d0d3e;fill-opacity:1">
					<path
   style="fill:#0d0d3e;fill-opacity:1"
   d="m 2210.288,2711.339 c -11.704,0 -26.636,-3.237 -45.308,-9.731 -54.6,-18.992 -61.343,-43.679 -79.365,-109.656 -4.702,-17.205 -10.552,-38.613 -18.335,-63.909 -23.638,-76.826 -99.98,-120.742 -145.591,-146.982 -28.784,-16.56 -41.924,-24.116 -41.035,-38.97 1.304,-21.909 30.61,-31.438 87.119,-28.262 0.513,0.027 1.025,0.083 1.533,0.161 171.465,27.056 286.02,183.423 272.681,372.017 0.098,5.574 -2.051,12.966 -8.608,18.391 -5.591,4.621 -13.183,6.941 -23.091,6.941 z m 1.202,-23.289 c 0,0.01 0.01,0.015 0.01,0.02 0,-0.01 -0.01,-0.013 -0.01,-0.02 z m -289.454,-342.251 c 4.624,2.783 9.917,5.83 14.927,8.711 46.274,26.619 132.407,76.169 159.595,164.524 7.925,25.762 13.848,47.432 18.604,64.844 17.388,63.64 20.518,75.107 59.883,88.799 21.338,7.422 31.992,8.232 36.597,8.04 10.698,-170.652 -92.349,-311.636 -246.338,-336.345 -15.475,-0.809 -31.934,-0.157 -43.268,1.427 z"
   id="path51" />
				</g>
				<g
   id="g53"
   style="fill:#0d0d3e;fill-opacity:1">
					<path
   style="fill:#0d0d3e;fill-opacity:1"
   d="m 1733.132,2460.494 c 27.547,-25.31 54.076,-50.745 86.94,-69.414 11.773,-5.97 21.757,10.676 10.996,18.244 -27.3,20.603 -50.149,48.701 -72.173,74.874 -16.217,18.525 -42.899,-5.947 -25.763,-23.704 z"
   id="path52" />
				</g>
				<g
   id="g54"
   style="fill:#0d0d3e;fill-opacity:1">
					<path
   style="fill:#0d0d3e;fill-opacity:1"
   d="m 1775.934,2760.786 c -47.231,-62.265 61.718,-203.455 119.613,-230.318 5.309,-2.546 11.676,-0.307 14.222,5 2.525,5.241 0.337,11.517 -4.783,14.119 -34.041,20.59 -58.771,55.483 -79.125,89.17 -10.091,17.592 -18.778,36.076 -24.102,54.61 -3.496,12.966 -5.938,25.767 -2.754,37.843 1.134,3.653 2.739,5.811 4.636,8.199 13.826,18.601 -13.15,39.513 -27.707,21.377 z"
   id="path53" />
				</g>
				<g
   id="g55"
   style="fill:#0d0d3e;fill-opacity:1">
					<path
   style="fill:#0d0d3e;fill-opacity:1"
   d="m 1920.289,2804.059 c -4.298,-35.879 9.617,-72.323 32.719,-99.361 1.296,-1.669 4.143,-4.877 5.683,-6.332 0,0 5.927,-6.044 5.927,-6.044 7.637,-6.124 17.781,-20.374 27.629,-10.006 8.415,10.249 -5.242,18.487 -10.895,25.83 0,0 -4.49,5.724 -4.49,5.724 -7.212,9.27 -13.109,20.002 -17.311,30.933 -5.991,16.569 -8.708,34.893 -5.026,51.954 4.143,22.737 -28.707,29.803 -34.236,7.302 z"
   id="path54" />
				</g>
			</g>
		</g><g
     id="g97"
     transform="matrix(-0.20408251,-0.02955144,-0.02837848,0.21251775,999.32157,104.4456)">
			<g
   id="g58"
   style="fill:#fbfbfe;fill-opacity:1">
				<path
   style="fill:#fbfbfe;fill-opacity:1"
   d="m 1464.48,1507.15 v 227.674 c 0,0 4.901,48.222 45.203,110.315 51.897,80.121 162.562,183.347 397.195,236.12 416.623,93.774 898.534,-7.351 1041.537,-67.3 178.928,-75.002 227.149,-280.141 208.289,-744.024 0,0 -52.072,-205.445 -188.773,-389.012 -42.009,-56.405 -111.453,-105.939 -200.895,-144.315 -0.044,0 -0.044,0 -0.044,0 -201.594,-86.51 -504.884,-116.31 -824.976,-40.564 -462.177,109.353 -477.536,811.106 -477.536,811.106 z"
   id="path57" />
			</g>
			<g
   id="g59">
				<path
   style="fill:#c9e1f7"
   d="m 1509.682,1845.139 c 51.897,80.121 162.562,183.347 397.195,236.12 416.623,93.774 898.534,-7.351 1041.537,-67.3 178.928,-75.002 227.149,-280.141 208.289,-744.024 0,0 -52.072,-205.445 -188.773,-389.012 -42.009,-56.405 -111.453,-105.939 -200.895,-144.315 3.719,1.794 228.068,111.146 225.531,347.398 -2.494,238.265 -320.617,1218.014 -1460.523,769.797 -7.527,-2.975 -14.965,-5.864 -22.361,-8.664 z"
   id="path58" />
			</g>
			<g
   id="g60">
				<path
   style="fill:#0d0d3e;fill-opacity:1"
   d="m 2278.789,2136.89 c -117.759,0 -247.876,-9.763 -375.757,-38.538 -220.249,-49.556 -332.222,-144.094 -387.378,-214.675 -60.928,-77.979 -68.306,-144.289 -68.589,-147.075 -0.059,-0.591 -0.093,-1.184 -0.093,-1.777 v -227.686 c 0.166,-7.651 4.614,-180.576 66.323,-369.956 82.612,-253.538 229.468,-411.968 424.702,-458.164 217.222,-51.401 445.405,-57.625 642.519,-17.529 184.111,37.449 330.43,113.618 401.445,208.979 137.197,184.238 189.541,386.638 191.704,395.164 0.298,1.177 0.474,2.378 0.522,3.591 19.766,485.681 -37.549,684.785 -219.023,760.869 -73.823,30.95 -233.247,71.57 -422.998,92.549 -71.223,7.876 -158.279,14.248 -253.377,14.248 z m -796.806,-403.154 c 0.962,6.887 10.366,64.155 62.842,130.398 51.777,65.361 157.29,153.13 365.894,200.068 396.343,89.18 874.477,-0.808 1030.913,-66.394 164.688,-69.045 216.475,-258.889 197.656,-725.256 -5.352,-19.944 -58.96,-211.384 -185.4,-381.174 -65.938,-88.543 -204.565,-159.829 -380.347,-195.583 -192.246,-39.106 -415.093,-32.964 -627.485,17.292 -185.322,43.85 -319.727,190.188 -399.478,434.941 -60.117,184.512 -64.561,357.766 -64.6,359.495 z"
   id="path59" />
			</g>
			<g
   id="g63"
   style="fill:#0d0d3e;fill-opacity:1">
				<g
   id="g61"
   style="fill:#0d0d3e;fill-opacity:1">
					<path
   style="fill:#0d0d3e;fill-opacity:1"
   d="m 1464.48,1734.824 c 1.576,8.008 3.194,15.84 4.945,23.586 221.329,318.955 1003.816,295.194 1304.524,166.632 140.596,-447.867 -52.948,-806.292 -52.948,-806.292 -17.066,-9.233 -33.869,-17.897 -50.409,-26.036 -199.845,-98.325 -357.506,-119.81 -357.506,-119.81 l -126.725,104.189 c -164.006,49.885 -294.493,48.528 -371.508,-34.744 l -5.207,-142.346 c 0,0 -151.01,30.412 -238.658,106.771 -117.798,238.832 -145.497,525.055 -106.508,728.05 z"
   id="path60" />
				</g>
				<g
   id="g62"
   style="fill:#0d0d3e;fill-opacity:1">
					<path
   style="fill:#0d0d3e;fill-opacity:1"
   d="m 2222.227,2031.412 c -44.102,0 -88.164,-1.438 -131.499,-4.404 -178.882,-12.246 -499.331,-62.129 -635.674,-258.623 -1.284,-1.851 -2.197,-3.931 -2.695,-6.128 -23.828,-105.664 -28.335,-235.347 -12.695,-365.161 17.075,-141.687 57.056,-279.334 115.625,-398.064 1.025,-2.078 2.451,-3.931 4.199,-5.452 90.122,-78.525 240.376,-109.443 246.729,-110.723 5.049,-1.008 10.264,0.239 14.292,3.418 4.033,3.181 6.465,7.971 6.65,13.103 l 4.961,135.691 c 66.919,67.527 180.151,76.113 345.815,26.27 l 124.019,-101.936 c 3.77,-3.093 8.633,-4.48 13.477,-3.821 7.676,1.045 190.601,26.987 413.892,147.761 2.998,1.621 5.459,4.082 7.075,7.08 2.026,3.75 49.946,93.518 80.923,239.902 28.545,134.888 47.09,345.002 -26.68,579.968 -1.533,4.875 -5.117,8.84 -9.819,10.85 -132.951,56.834 -346.027,90.269 -558.595,90.269 z m -736.465,-280.208 c 129.165,182.156 435.615,229.121 607.354,240.876 243.33,16.66 509.561,-15.447 666.523,-80.015 68.525,-224.063 50.854,-424.187 23.701,-553.213 -26.055,-123.821 -65.522,-207.463 -75.435,-227.283 C 2517.3,1029.406 2354.17,997.563 2318.095,991.444 l -120.635,99.155 c -1.772,1.458 -3.818,2.554 -6.016,3.223 -185.283,56.382 -312.666,43.435 -389.424,-39.582 -2.842,-3.071 -4.487,-7.061 -4.639,-11.243 l -4.429,-121.057 c -42.607,10.881 -143.14,40.945 -207.837,95.771 -124.397,254.389 -139.621,550.551 -99.353,733.493 z"
   id="path61" />
				</g>
			</g>
			<g
   id="g80"
   transform="translate(1008.0429,2091.1528)"
   style="fill:url(#radialGradient100)">
				<g
   id="g64"
   style="fill:#00ffff;fill-opacity:1"
   transform="translate(-932.97587,-2091.1528)">
					<path
   style="fill:#00ffff;fill-opacity:1"
   d="m 1768.248,1500.838 c -10.691,-57.63 -25.273,-114.341 -37.337,-147.08 -22.811,29.497 -56.661,84.04 -87.631,142.1 -4.79,8.981 -15.902,12.452 -24.94,7.771 l -44.66,-23.125 c -9.218,-4.773 -12.755,-16.141 -7.838,-25.284 10.441,-19.413 29.039,-53.135 49.97,-87.143 55.813,-90.67 88.604,-122.122 125.495,-120.276 46.756,2.38 69.988,56.689 92.316,143.552 9.468,36.828 16.759,73.124 20.741,94.249 1.926,10.213 -4.907,19.988 -15.153,21.732 l -49.583,8.441 c -10.014,1.706 -19.527,-4.949 -21.38,-14.937 z"
   id="path63" />
				</g>
				<g
   id="g65"
   style="fill:#00ffff;fill-opacity:1"
   transform="translate(-932.97587,-2091.1528)">
					<path
   style="fill:#00ffff;fill-opacity:1"
   d="m 2284.724,1528.142 c 23.222,-53.817 50.034,-105.874 69.067,-135.115 15.691,33.826 36.584,94.524 53.886,158.012 2.677,9.82 12.74,15.672 22.592,13.116 l 48.68,-12.63 c 10.048,-2.607 16.021,-12.906 13.257,-22.912 -5.869,-21.247 -16.514,-58.257 -29.37,-96.064 -34.284,-100.801 -59.272,-138.749 -95.652,-145.142 -46.117,-8.062 -80.829,39.731 -121.89,119.467 -17.409,33.806 -32.579,67.576 -41.153,87.289 -4.146,9.531 0.346,20.578 9.948,24.554 l 46.471,19.241 c 9.386,3.887 20.139,-0.489 24.164,-9.816 z"
   id="path64" />
				</g>
				<path
   style="fill:url(#linearGradient111)"
   d="m 985.89813,-480.29882 c 62.13497,24.883 127.21997,26.151 195.72197,0.077 9.544,-3.633 19.672,3.816 19.075,14.01 -3.407,58.251 -22.081,210.509 -124.225,209.456 -102.68797,-1.059 -110.56497,-153.624 -109.92397,-210.601 0.113,-9.92 10.143,-16.63 19.352,-12.942 z"
   id="path65" />
				
					<radialGradient
   id="SVGID_1_"
   cx="2725.8047"
   cy="-9961.3115"
   r="471.95529"
   gradientTransform="matrix(0.1249,-1.1586,1.1579,0.1248,12910.042,5776.625)"
   gradientUnits="userSpaceOnUse"
   style="fill:url(#radialGradient100)">
					<stop
   offset="0"
   style="stop-color:#0064BF;fill:url(#radialGradient100)"
   id="stop65" />
					<stop
   offset="0.0185"
   style="stop-color:#0061B9;fill:url(#radialGradient100)"
   id="stop66" />
					<stop
   offset="0.2097"
   style="stop-color:#004481;fill:url(#radialGradient100)"
   id="stop67" />
					<stop
   offset="0.3955"
   style="stop-color:#002B53;fill:url(#radialGradient100)"
   id="stop68" />
					<stop
   offset="0.5717"
   style="stop-color:#00192F;fill:url(#radialGradient100)"
   id="stop69" />
					<stop
   offset="0.7358"
   style="stop-color:#000B15;fill:url(#radialGradient100)"
   id="stop70" />
					<stop
   offset="0.8833"
   style="stop-color:#000305;fill:url(#radialGradient100)"
   id="stop71" />
					<stop
   offset="1"
   style="stop-color:#000000;fill:url(#radialGradient100)"
   id="stop72" />
				</radialGradient>
				
				
					<radialGradient
   id="SVGID_00000106860055013559142400000015201654911196318874_"
   cx="2746.8521"
   cy="-9418.415"
   r="471.95529"
   gradientTransform="matrix(0.1249,-1.1586,1.1579,0.1248,12910.042,5776.625)"
   gradientUnits="userSpaceOnUse"
   style="fill:url(#radialGradient100)">
					<stop
   offset="0"
   style="stop-color:#0064BF;fill:url(#radialGradient100)"
   id="stop73" />
					<stop
   offset="0.0185"
   style="stop-color:#0061B9;fill:url(#radialGradient100)"
   id="stop74" />
					<stop
   offset="0.2097"
   style="stop-color:#004481;fill:url(#radialGradient100)"
   id="stop75" />
					<stop
   offset="0.3955"
   style="stop-color:#002B53;fill:url(#radialGradient100)"
   id="stop76" />
					<stop
   offset="0.5717"
   style="stop-color:#00192F;fill:url(#radialGradient100)"
   id="stop77" />
					<stop
   offset="0.7358"
   style="stop-color:#000B15;fill:url(#radialGradient100)"
   id="stop78" />
					<stop
   offset="0.8833"
   style="stop-color:#000305;fill:url(#radialGradient100)"
   id="stop79" />
					<stop
   offset="1"
   style="stop-color:#000000;fill:url(#radialGradient100)"
   id="stop80" />
				</radialGradient>
				
			</g>
			<g
   id="g92">
				<g
   id="g81"
   style="fill:#08eace;fill-opacity:1">
					<path
   style="fill:#08eace;fill-opacity:1"
   d="m 2947.469,1524.134 c 40.45,-172.711 129.057,-299.648 197.909,-283.522 57.54,12.656 92.81,59.25 92.81,59.25 l -0.016,0.067 c 40.541,44.988 50.04,164.586 19.084,296.759 -31.546,134.692 -94.938,239.069 -152.092,258.647 l -0.01,0.029 c -30.307,10.855 -71.577,18.495 -103.965,11.075 -0.763,-0.143 -1.537,-0.209 -2.296,-0.386 -2.366,-0.555 -4.667,-1.306 -6.924,-2.178 -0.068,-0.024 -0.14,-0.04 -0.208,-0.063 l 0.01,-0.027 c -63.261,-24.768 -83.318,-173.056 -44.301,-339.651 z"
   id="path81" />
				</g>
				
				<g
   style="opacity:0.61"
   id="g83">
					<path
   style="fill:#ffffff"
   d="m 3151.764,1308.816 9.71,84.19 c 0,0 -43.993,59.762 -44.562,60.769 -0.568,1.007 -8.599,8.015 -9.033,9.534 -0.434,1.519 -8.679,22.349 -10.415,21.698 -1.736,-0.651 -29.873,-51.208 -29.873,-51.208 l 44.41,-78.548"
   id="path83" />
				</g>
				<g
   style="opacity:0.61"
   id="g84">
					<path
   style="fill:#ffffff"
   d="m 3070.998,1269.935 c 0,0 32.573,5.465 71.615,28.465 0,0 -31.805,39.322 -51.592,77.897 -19.787,38.575 -26.209,53.053 -26.209,53.053 0,0 -75.188,-15.192 -72.15,-21.863 3.037,-6.67 36.463,-102.224 78.336,-137.552 z"
   id="path84" />
				</g>
				<g
   id="g85"
   style="fill:#0d0d3e;fill-opacity:1">
					<path
   style="fill:#0d0d3e;fill-opacity:1"
   d="m 3029.575,1886.902 c -10.591,0 -21.348,-0.945 -31.777,-3.286 -1.089,-0.156 -2.007,-0.313 -2.915,-0.525 -2.803,-0.659 -5.659,-1.538 -8.687,-2.686 -0.112,-0.037 -0.22,-0.076 -0.322,-0.11 -0.527,-0.19 -1.05,-0.405 -1.558,-0.642 -36.304,-14.915 -61.289,-61.089 -70.405,-130.222 -8.638,-65.493 -2.769,-146.934 16.519,-229.289 v 0 c 20.054,-85.64 52.373,-163.274 90.991,-218.601 41.763,-59.827 87.222,-87.512 127.944,-77.971 62.891,13.828 101.182,63.616 102.778,65.728 0.015,0.017 0.024,0.032 0.039,0.049 44.844,51.458 53.77,176.182 22.114,311.333 -32.622,139.277 -97.827,247.888 -162.505,270.881 -0.244,0.1 -0.488,0.193 -0.732,0.283 -11.601,4.153 -45.522,15.056 -81.484,15.058 z m -37.812,-23.09 h 0.049 z m 6.894,-16.121 c 1.714,0.635 3.008,1.035 4.229,1.318 0.425,0.037 0.991,0.125 1.558,0.229 0.22,0.042 0.439,0.088 0.659,0.139 28.867,6.609 66.973,-0.881 93.34,-10.203 0.342,-0.144 0.693,-0.276 1.05,-0.4 44.888,-15.376 107.642,-104.839 140.723,-246.079 32.261,-137.747 16.851,-245.652 -15.044,-281.05 -0.562,-0.62 -1.069,-1.274 -1.528,-1.958 -4.59,-5.632 -35.552,-41.76 -82.026,-51.982 -25.693,-6.035 -58.965,17.275 -91.489,63.872 -36.143,51.775 -66.543,125.127 -85.615,206.548 v 0 c -39.292,167.773 -14.331,300.581 33.643,319.36 0.168,0.067 0.334,0.135 0.5,0.206 z m -51.186,-323.557 h 0.049 z"
   id="path85" />
				</g>
				<g
   id="g86">
					<path
   style="fill:#5c7293"
   d="m 3062.098,1662.798 c -0.744,62.53 15.14,108.696 44.24,115.478 42.708,10.021 97.669,-68.744 122.786,-175.908 6.826,-29.231 10.765,-57.543 11.946,-83.448 3.238,-69.182 -12.777,-121.386 -43.846,-128.65 -42.752,-10.02 -97.712,68.745 -122.786,175.865 -8.052,34.264 -12.034,67.301 -12.34,96.663 z"
   id="path86" />
				</g>
				<g
   id="g87">
					<path
   style="fill:#445d82"
   d="m 3062.098,1662.798 c 1.707,4.813 2.713,7.526 2.713,7.526 0,0 41.308,-174.202 96.662,-200.5 55.354,-26.299 79.596,49.097 79.596,49.097 3.238,-69.182 -12.777,-121.386 -43.846,-128.65 -42.752,-10.02 -97.712,68.745 -122.786,175.865 -8.051,34.263 -12.033,67.3 -12.339,96.662 z"
   id="path87" />
				</g>
				<g
   id="g88"
   style="fill:#0d0d3e;fill-opacity:1">
					<path
   style="fill:#0d0d3e;fill-opacity:1"
   d="m 3113.526,1787.972 c -3.11,0 -6.187,-0.349 -9.224,-1.06 -24.429,-5.72 -41.519,-33.044 -48.12,-76.941 -6.187,-41.152 -2.773,-92.944 9.614,-145.835 12.388,-52.891 32.324,-100.813 56.143,-134.936 25.415,-36.401 52.866,-53.289 77.285,-47.571 24.429,5.72 41.519,33.047 48.125,76.941 6.187,41.152 2.773,92.944 -9.614,145.835 -24.937,106.475 -77.969,183.564 -124.209,183.567 z m 76.225,-389.712 c -15.728,0 -34.8,14.595 -53.286,41.079 -22.563,32.324 -41.538,78.081 -53.423,128.835 v 0 c -11.89,50.757 -15.205,100.181 -9.346,139.163 5.371,35.713 17.998,58.43 34.648,62.329 33.159,7.773 86.172,-58.406 112.144,-169.299 11.89,-50.757 15.205,-100.178 9.341,-139.16 -5.371,-35.713 -17.998,-58.433 -34.648,-62.331 -1.758,-0.413 -3.569,-0.616 -5.43,-0.616 z m -115.332,167.896 h 0.049 z"
   id="path88" />
				</g>
				<g
   id="g89"
   style="fill:#0d0d3e;fill-opacity:1">
					<path
   style="fill:#0d0d3e;fill-opacity:1"
   d="m 3100.479,1750.103 c -2.666,0 -5.303,-0.298 -7.91,-0.906 -15.332,-3.591 -27.417,-17.119 -34.961,-39.124 -1.362,-3.977 0.757,-8.306 4.731,-9.67 3.979,-1.362 8.311,0.757 9.673,4.734 4.014,11.709 11.44,26.284 24.028,29.233 27.949,6.514 74.399,-51.638 96.396,-145.554 21.997,-93.889 6.187,-166.631 -21.763,-173.193 -6.338,-1.465 -13.433,0.144 -21.123,4.761 -3.594,2.151 -8.271,0.998 -10.444,-2.61 -2.163,-3.606 -0.996,-8.281 2.612,-10.447 11.196,-6.719 22.119,-8.904 32.402,-6.536 41.475,9.739 56.021,93.852 33.14,191.497 -21.435,91.526 -67.03,157.815 -106.781,157.815 z"
   id="path89" />
				</g>
				<g
   id="g90"
   style="fill:#0d0d3e;fill-opacity:1">
					<path
   style="fill:#0d0d3e;fill-opacity:1"
   d="m 3086.333,1871.815 c -4.756,0 -9.448,-0.535 -14.067,-1.619 -71.45,-16.733 -96.523,-161.777 -57.08,-330.203 v 0 c 18.364,-78.396 47.92,-149.426 83.223,-200.003 37.661,-53.957 78.398,-78.997 114.551,-70.51 71.455,16.733 96.523,161.775 57.08,330.2 -18.364,78.398 -47.92,149.426 -83.223,200.005 -32.852,47.066 -68.008,72.13 -100.484,72.13 z m -58.364,-328.829 12.783,2.993 c -37.93,161.943 -10.679,287.371 37.5,298.655 24.712,5.786 56.401,-16.084 87.036,-59.976 33.442,-47.913 61.567,-115.732 79.185,-190.964 37.93,-161.941 10.679,-287.368 -37.5,-298.652 -24.678,-5.774 -56.396,16.086 -87.036,59.976 -33.442,47.913 -61.567,115.73 -79.185,190.962 z"
   id="path90" />
				</g>
				<g
   id="g91"
   style="fill:#0d0d3e;fill-opacity:1">
					<path
   style="fill:#0d0d3e;fill-opacity:1"
   d="m 3151.758,1712.935 c -3.506,0 -6.655,-2.432 -7.432,-5.991 l -48.877,-224.006 c -0.898,-4.109 1.704,-8.167 5.815,-9.063 4.116,-0.884 8.164,1.711 9.058,5.815 l 48.877,224.006 c 0.898,4.109 -1.704,8.164 -5.815,9.063 -0.547,0.118 -1.089,0.176 -1.626,0.176 z"
   id="path91" />
				</g>
			</g>
			<g
   id="g93"
   style="fill:#08eace;fill-opacity:1">
				<path
   style="fill:#08eace;fill-opacity:1"
   d="m 1889.418,770.259 c 138.145,139.327 441.872,42.971 441.872,42.971 210.259,-112.634 370.545,-101.388 370.545,-101.388 -37.239,-57.63 -162.956,-91.542 -304.208,-99.638 -124.624,-7.133 -261.325,5.907 -359.913,40.476 -79.728,31.681 -117.141,67.476 -134.294,91.149 -11.596,15.971 -14.002,26.43 -14.002,26.43 z"
   id="path92" />
			</g>
			<g
   id="g94"
   style="fill:#3a9def;fill-opacity:1">
				<path
   style="fill:#3a9def;fill-opacity:1"
   d="m 1889.418,770.259 c 138.145,139.327 441.872,42.971 441.872,42.971 210.259,-112.634 370.545,-101.388 370.545,-101.388 -37.239,-57.63 -162.956,-91.542 -304.208,-99.638 0,0 136.133,26.561 53.429,79.947 -82.659,53.385 -255.943,122.392 -408.79,100.25 -92.68,-13.434 -126.593,-34.263 -138.845,-48.572 -11.597,15.971 -14.003,26.43 -14.003,26.43 z"
   id="path93" />
			</g>
			<g
   id="g95"
   style="fill:#0d0d3e;fill-opacity:1">
				<path
   style="fill:#0d0d3e;fill-opacity:1"
   d="m 2116.47,863.465 c -85.337,0.003 -177.231,-18.105 -239.473,-80.879 -4.229,-4.263 -5.977,-10.396 -4.634,-16.245 0.693,-3.003 18.525,-74.194 158.892,-129.919 0.22,-0.088 0.439,-0.171 0.664,-0.249 101.631,-35.676 251.767,-50.898 391.811,-39.724 71.138,5.674 242.08,27.353 292.822,105.889 3.599,5.569 3.74,12.693 0.366,18.401 -3.364,5.708 -9.668,9.048 -16.289,8.56 -2.578,-0.164 -159.048,-8.848 -361.074,99.358 -0.947,0.508 -1.943,0.928 -2.969,1.255 -7.279,2.306 -108.031,33.551 -220.116,33.553 z M 1910.23,765.88 c 127.939,114.065 392.158,37.788 414.311,31.111 149.399,-79.7 273.252,-98.242 335.474,-102.092 -45.601,-31.589 -131.89,-55.005 -239.067,-63.555 -135.332,-10.798 -279.785,3.665 -377.099,37.744 -92.813,36.916 -124.063,79.03 -133.619,96.792 z"
   id="path94" />
			</g>
			<g
   id="g96"
   style="fill:#0d0d3e;fill-opacity:1">
				<path
   style="fill:#0d0d3e;fill-opacity:1"
   d="m 2706.409,1109.068 c 59.259,-78.176 133.086,-144.926 216.947,-195.627 8.378,-5.014 16.563,7.037 8.582,12.912 -39.002,27.211 -75.27,58.133 -108.16,92.445 -32.534,33.73 -63.038,70.694 -88.39,109.928 -13.385,19.739 -42.413,0.23 -28.979,-19.658 z"
   id="path95" />
			</g>
		</g></g>
	</g>
</g>
</svg>
