<?xml version="1.0" encoding="UTF-8" standalone="no"?>
<!-- Generator: Adobe Illustrator 27.5.0, SVG Export Plug-In . SVG Version: 6.00 Build 0)  -->

<svg
   version="1.1"
   id="_x3C_Layer_x3E_"
   x="0px"
   y="0px"
   viewBox="0 0 448.71588 422.40201"
   xml:space="preserve"
   width="448.71588"
   height="422.40201"
   xmlns:xlink="http://www.w3.org/1999/xlink"
   xmlns="http://www.w3.org/2000/svg"
   xmlns:svg="http://www.w3.org/2000/svg"><defs
   id="defs156"><linearGradient
     id="linearGradient156"><stop
       style="stop-color:#1c4d3b;stop-opacity:1;"
       offset="0"
       id="stop157" /><stop
       style="stop-color:#1c2c38;stop-opacity:0;"
       offset="1"
       id="stop158" /></linearGradient><radialGradient
     xlink:href="#linearGradient156"
     id="radialGradient158"
     cx="345.02261"
     cy="955.4472"
     fx="345.02261"
     fy="955.4472"
     r="166.67245"
     gradientTransform="matrix(0.77070063,0,0,0.62420388,-109.15915,-309.87749)"
     gradientUnits="userSpaceOnUse" /><radialGradient
     xlink:href="#linearGradient156"
     id="radialGradient158-0"
     cx="345.02261"
     cy="955.4472"
     fx="345.02261"
     fy="955.4472"
     r="166.67245"
     gradientTransform="matrix(0.77070063,0,0,0.62420388,22.969279,-387.70476)"
     gradientUnits="userSpaceOnUse" /></defs>

<radialGradient
   id="SVGID_1_"
   cx="525.00812"
   cy="525.88538"
   r="627.6579"
   gradientTransform="matrix(-0.24195808,0,0,0.25001107,493.9006,-65.852053)"
   gradientUnits="userSpaceOnUse">
	<stop
   offset="0"
   style="stop-color:#2BF76A"
   id="stop1" />
	<stop
   offset="0.1509"
   style="stop-color:#2AF06A"
   id="stop2" />
	<stop
   offset="0.3635"
   style="stop-color:#26DE69"
   id="stop3" />
	<stop
   offset="0.6128"
   style="stop-color:#1FC068"
   id="stop4" />
	<stop
   offset="0.8877"
   style="stop-color:#169666"
   id="stop5" />
	<stop
   offset="1"
   style="stop-color:#128365"
   id="stop6" />
</radialGradient>
<path
   style="fill:url(#SVGID_1_);stroke-width:0.245952"
   d="m 400.50382,104.7565 c -37.64384,-9.546683 -59.75518,9.91844 -107.73474,15.75169 -34.67961,4.21669 -30.74828,55.57046 30.6106,72.1022 61.35887,16.53173 110.17779,7.73534 117.81423,-25.29962 3.70825,-16.04046 -6.94638,-53.99764 -40.69009,-62.55427 z"
   id="path6" />
<g
   id="g72"
   transform="matrix(0.24195808,0,0,0.25001107,-52.573891,-65.852053)"
   style="fill:#1c9e7e;fill-opacity:1">
	
		<radialGradient
   id="SVGID_00000162341129395946488330000016709855296125881528_"
   cx="1319.3201"
   cy="749.97302"
   r="1097.0715"
   gradientUnits="userSpaceOnUse">
		<stop
   offset="0"
   style="stop-color:#2BF76A"
   id="stop7" />
		<stop
   offset="0.1509"
   style="stop-color:#2AF06A"
   id="stop8" />
		<stop
   offset="0.3635"
   style="stop-color:#26DE69"
   id="stop9" />
		<stop
   offset="0.6128"
   style="stop-color:#1FC068"
   id="stop10" />
		<stop
   offset="0.8877"
   style="stop-color:#169666"
   id="stop11" />
		<stop
   offset="1"
   style="stop-color:#128365"
   id="stop12" />
	</radialGradient>
	<path
   style="fill:#1c9e7e;fill-opacity:1"
   d="m 1453.121,354.248 c 95.599,15.685 181.414,44.897 256.218,87.308 100.117,56.766 175.857,134.229 225.103,230.243 50.457,98.359 70.018,213.684 56.568,333.502 -14.026,124.998 -61.81,250.53 -142.012,373.104 -49.473,75.613 -131.465,182.161 -271.705,234.264 -145.68,54.114 -324.363,41.768 -546.271,-37.743 -216.064,-77.425 -326.332,-147.258 -368.716,-233.498 -41.584,-84.617 -18.856,-183.247 12.591,-319.751 6.304,-27.353 12.823,-55.637 19.337,-85.942 l 5.254,1.128 -5.254,-1.128 C 732.752,756.504 810.009,606.14 917.648,500.899 c 113.453,-110.911 256.13,-165.935 412.615,-159.123 42.542,1.854 83.527,6.015 122.858,12.472 z m -198.629,1269.454 c 331.795,54.447 486.521,-99.894 585.511,-251.182 157.386,-240.533 188.317,-494.147 84.875,-695.813 C 1823.964,479.963 1612.599,364.822 1329.799,352.519 1024.713,339.232 785.208,563.573 704.743,937.99 c -6.528,30.384 -13.055,58.708 -19.364,86.096 -62.558,271.495 -88.45,383.867 349.273,540.72 80.911,28.994 153.878,48.068 219.84,58.896 z"
   id="path12" />
	
		<radialGradient
   id="SVGID_00000104665772761252735590000006219943892711226781_"
   cx="1319.3192"
   cy="749.97449"
   r="1097.0718"
   gradientUnits="userSpaceOnUse">
		<stop
   offset="0"
   style="stop-color:#2BF76A"
   id="stop13" />
		<stop
   offset="0.1509"
   style="stop-color:#2AF06A"
   id="stop14" />
		<stop
   offset="0.3635"
   style="stop-color:#26DE69"
   id="stop15" />
		<stop
   offset="0.6128"
   style="stop-color:#1FC068"
   id="stop16" />
		<stop
   offset="0.8877"
   style="stop-color:#169666"
   id="stop17" />
		<stop
   offset="1"
   style="stop-color:#128365"
   id="stop18" />
	</radialGradient>
	<path
   style="fill:#1c9e7e;fill-opacity:1"
   d="m 1474.975,439.298 c 88.379,14.503 167.716,41.51 236.867,80.714 92.574,52.491 162.609,124.119 208.145,212.9 46.65,90.948 64.732,197.58 52.303,308.363 -12.972,115.552 -57.133,231.591 -131.271,344.898 -45.74,69.908 -121.551,168.42 -251.234,216.598 -134.685,50.032 -299.867,38.64 -504.993,-34.868 -199.736,-71.571 -301.683,-136.15 -340.896,-215.938 -38.482,-78.313 -17.47,-169.496 11.603,-295.702 5.823,-25.27 11.843,-51.397 17.858,-79.397 v 0 c 35.608,-165.677 107.03,-304.675 206.539,-401.962 104.895,-102.559 236.828,-153.436 381.527,-147.136 39.321,1.717 77.2,5.563 113.552,11.53 z M 1291.43,1612.175 c 306.373,50.272 449.203,-92.217 540.593,-231.889 145.329,-222.105 173.897,-456.277 78.4,-642.469 C 1817.253,556.18 1622.093,449.89 1360.957,438.51 1079.295,426.247 858.174,633.399 783.869,979.124 c -6.033,28.079 -12.062,54.246 -17.894,79.555 -57.737,250.586 -81.629,354.309 322.442,499.104 74.712,26.772 142.104,44.395 203.013,54.392 z"
   id="path18" />
	
		<radialGradient
   id="SVGID_00000095318798874691155160000002610470383349158064_"
   cx="1319.3198"
   cy="749.97388"
   r="1097.069"
   gradientUnits="userSpaceOnUse">
		<stop
   offset="0"
   style="stop-color:#2BF76A"
   id="stop19" />
		<stop
   offset="0.1509"
   style="stop-color:#2AF06A"
   id="stop20" />
		<stop
   offset="0.3635"
   style="stop-color:#26DE69"
   id="stop21" />
		<stop
   offset="0.6128"
   style="stop-color:#1FC068"
   id="stop22" />
		<stop
   offset="0.8877"
   style="stop-color:#169666"
   id="stop23" />
		<stop
   offset="1"
   style="stop-color:#128365"
   id="stop24" />
	</radialGradient>
	<path
   style="fill:#1c9e7e;fill-opacity:1"
   d="m 1496.836,524.353 c 81.156,13.317 154,38.115 217.508,74.121 85.032,48.213 149.354,114.004 191.184,195.554 42.844,83.537 59.46,181.471 48.041,283.22 -11.908,106.107 -52.465,212.66 -120.531,316.693 -42.008,64.203 -111.641,154.679 -230.764,198.936 -123.707,45.955 -275.384,35.49 -463.715,-31.998 -183.409,-65.722 -277.042,-125.047 -313.075,-198.376 -35.385,-72.004 -16.091,-155.746 10.614,-271.648 5.346,-23.188 10.867,-47.162 16.389,-72.852 32.69,-152.119 98.271,-279.747 189.656,-369.088 96.347,-94.198 217.525,-140.932 350.434,-135.144 36.101,1.569 70.887,5.104 104.259,10.582 z m -168.459,1076.289 c 280.94,46.104 411.876,-84.529 495.666,-212.59 133.271,-203.683 159.486,-418.407 71.916,-589.12 -72.572,-141.492 -212.687,-233.121 -400.05,-263.878 -33.163,-5.442 -67.778,-8.973 -103.797,-10.544 C 1133.869,513.266 931.127,703.229 863,1020.259 v 0 c -5.535,25.769 -11.073,49.783 -16.424,73.01 -52.92,229.684 -74.826,324.752 295.61,457.494 68.507,24.548 130.339,40.717 186.191,49.879 z"
   id="path24" />
	
		<radialGradient
   id="SVGID_00000128464022818287434440000010010411204101480093_"
   cx="1319.3207"
   cy="749.97369"
   r="1097.0693"
   gradientUnits="userSpaceOnUse">
		<stop
   offset="0"
   style="stop-color:#2BF76A"
   id="stop25" />
		<stop
   offset="0.1509"
   style="stop-color:#2AF06A"
   id="stop26" />
		<stop
   offset="0.3635"
   style="stop-color:#26DE69"
   id="stop27" />
		<stop
   offset="0.6128"
   style="stop-color:#1FC068"
   id="stop28" />
		<stop
   offset="0.8877"
   style="stop-color:#169666"
   id="stop29" />
		<stop
   offset="1"
   style="stop-color:#128365"
   id="stop30" />
	</radialGradient>
	<path
   style="fill:#1c9e7e;fill-opacity:1"
   d="m 1518.698,609.407 c 73.925,12.132 140.293,34.725 198.148,67.528 77.48,43.929 136.097,103.884 174.221,178.198 81.437,158.777 57.378,357.993 -66.01,546.578 -38.281,58.498 -101.724,140.936 -210.298,181.27 -112.709,41.877 -250.889,32.349 -422.433,-29.125 -345.791,-123.904 -323.802,-219.332 -275.629,-428.408 4.86,-21.11 9.892,-42.932 14.914,-66.313 l 5.254,1.129 -5.254,-1.129 c 29.781,-138.565 89.521,-254.826 172.773,-336.214 87.802,-85.842 198.235,-128.428 319.349,-123.152 32.888,1.43 64.568,4.65 94.965,9.638 z m -153.384,979.706 c 255.475,41.922 374.562,-76.855 450.748,-193.291 121.214,-185.26 145.066,-380.542 65.441,-535.78 -77.678,-151.432 -240.415,-240.043 -458.233,-249.533 -234.819,-10.228 -419.182,162.544 -481.149,450.883 -5.04,23.458 -10.08,45.32 -14.945,66.465 -48.107,208.779 -68.022,295.194 268.778,415.883 62.331,22.335 118.554,37.035 169.36,45.373 z"
   id="path30" />
	
		<radialGradient
   id="SVGID_00000121977791798575120420000010652754694021132461_"
   cx="1319.3203"
   cy="749.97443"
   r="1097.0729"
   gradientUnits="userSpaceOnUse">
		<stop
   offset="0"
   style="stop-color:#2BF76A"
   id="stop31" />
		<stop
   offset="0.1509"
   style="stop-color:#2AF06A"
   id="stop32" />
		<stop
   offset="0.3635"
   style="stop-color:#26DE69"
   id="stop33" />
		<stop
   offset="0.6128"
   style="stop-color:#1FC068"
   id="stop34" />
		<stop
   offset="0.8877"
   style="stop-color:#169666"
   id="stop35" />
		<stop
   offset="1"
   style="stop-color:#128365"
   id="stop36" />
	</radialGradient>
	<path
   style="fill:#1c9e7e;fill-opacity:1"
   d="m 1541.295,694.54 c 156.865,25.743 274.286,102.734 335.313,221.708 73.5,143.299 51.804,323.072 -59.531,493.229 -34.545,52.793 -91.808,127.198 -189.822,163.611 -101.723,37.791 -226.397,29.217 -381.167,-26.254 -312.144,-111.852 -292.29,-198.013 -248.794,-386.799 4.379,-19.021 8.912,-38.696 13.44,-59.767 v 0 c 26.875,-125.011 80.775,-229.902 155.89,-303.34 79.262,-77.481 178.938,-115.924 288.27,-111.164 29.955,1.303 58.794,4.248 86.401,8.776 z m -139.037,883.041 c 230.051,37.752 337.238,-69.169 405.824,-173.993 109.156,-166.828 130.646,-342.672 58.958,-482.432 -69.921,-136.325 -216.453,-216.09 -412.61,-224.652 -211.396,-9.205 -377.379,146.375 -433.182,406.022 -4.542,21.148 -9.087,40.862 -13.475,59.92 -43.286,187.876 -61.206,265.642 241.946,374.272 56.131,20.113 106.785,33.356 152.539,40.863 z"
   id="path36" />
	
		<radialGradient
   id="SVGID_00000097502858941183130040000005999136995125491618_"
   cx="1319.3213"
   cy="749.97412"
   r="1097.0729"
   gradientUnits="userSpaceOnUse">
		<stop
   offset="0"
   style="stop-color:#2BF76A"
   id="stop37" />
		<stop
   offset="0.1509"
   style="stop-color:#2AF06A"
   id="stop38" />
		<stop
   offset="0.3635"
   style="stop-color:#26DE69"
   id="stop39" />
		<stop
   offset="0.6128"
   style="stop-color:#1FC068"
   id="stop40" />
		<stop
   offset="0.8877"
   style="stop-color:#169666"
   id="stop41" />
		<stop
   offset="1"
   style="stop-color:#128365"
   id="stop42" />
	</radialGradient>
	<path
   style="fill:#1c9e7e;fill-opacity:1"
   d="m 1563.082,779.585 c 139.896,22.961 244.624,91.635 299.066,197.776 65.565,127.82 46.227,288.151 -53.051,439.88 -30.817,47.092 -81.896,113.457 -169.356,145.949 -90.729,33.71 -201.906,26.063 -339.885,-23.38 -278.5,-99.793 -260.776,-176.692 -221.961,-345.188 3.902,-16.939 7.94,-34.457 11.97,-53.222 v 0 c 23.957,-111.449 72.021,-204.973 139.002,-270.467 70.714,-69.125 159.645,-103.42 257.185,-99.172 26.705,1.161 52.417,3.786 77.03,7.824 z m -123.873,786.468 c 204.588,33.574 299.906,-61.494 360.885,-154.695 97.107,-148.409 116.235,-304.802 52.487,-429.091 -62.183,-121.222 -192.522,-192.15 -366.997,-199.767 -187.968,-8.181 -335.571,130.208 -385.202,361.161 -4.051,18.843 -8.098,36.4 -12.014,53.38 -38.469,166.967 -54.39,236.079 215.119,332.652 49.946,17.898 95.008,29.68 135.722,36.36 z"
   id="path42" />
	
		<radialGradient
   id="SVGID_00000000935631463048484960000001622237480643097746_"
   cx="1319.3195"
   cy="749.97443"
   r="1097.0732"
   gradientUnits="userSpaceOnUse">
		<stop
   offset="0"
   style="stop-color:#2BF76A"
   id="stop43" />
		<stop
   offset="0.1509"
   style="stop-color:#2AF06A"
   id="stop44" />
		<stop
   offset="0.3635"
   style="stop-color:#26DE69"
   id="stop45" />
		<stop
   offset="0.6128"
   style="stop-color:#1FC068"
   id="stop46" />
		<stop
   offset="0.8877"
   style="stop-color:#169666"
   id="stop47" />
		<stop
   offset="1"
   style="stop-color:#128365"
   id="stop48" />
	</radialGradient>
	<path
   style="fill:#1c9e7e;fill-opacity:1"
   d="m 1582.573,864.426 c 122.968,20.182 217.748,81.699 265.112,174.05 57.627,112.341 40.652,253.23 -46.568,386.532 -27.081,41.392 -71.982,99.719 -148.885,128.292 -79.748,29.619 -177.42,22.921 -298.607,-20.51 -244.86,-87.736 -229.276,-155.378 -195.134,-303.572 3.382,-14.687 6.965,-30.214 10.5,-46.678 v 0 c 21.035,-97.895 63.267,-180.053 122.124,-237.593 62.164,-60.773 140.341,-90.921 226.096,-87.189 22.535,0.98 44.371,3.224 65.362,6.668 z m -106.43,690.099 c 179.139,29.396 262.596,-53.821 315.971,-135.402 85.051,-129.981 101.815,-266.936 46.008,-375.738 -54.434,-106.124 -168.577,-168.223 -321.379,-174.886 -164.544,-7.162 -293.772,114.034 -337.238,316.299 l -5.254,-1.129 5.254,1.129 c -3.552,16.521 -7.14,32.096 -10.539,46.834 -33.648,146.064 -47.574,206.522 188.287,291.039 43.758,15.68 83.229,26 118.89,31.854 z"
   id="path48" />
	
		<radialGradient
   id="SVGID_00000179641172320510253840000011336655593075871618_"
   cx="1319.3208"
   cy="749.97461"
   r="1097.0719"
   gradientUnits="userSpaceOnUse">
		<stop
   offset="0"
   style="stop-color:#2BF76A"
   id="stop49" />
		<stop
   offset="0.1509"
   style="stop-color:#2AF06A"
   id="stop50" />
		<stop
   offset="0.3635"
   style="stop-color:#26DE69"
   id="stop51" />
		<stop
   offset="0.6128"
   style="stop-color:#1FC068"
   id="stop52" />
		<stop
   offset="0.8877"
   style="stop-color:#169666"
   id="stop53" />
		<stop
   offset="1"
   style="stop-color:#128365"
   id="stop54" />
	</radialGradient>
	<path
   style="fill:#1c9e7e;fill-opacity:1"
   d="m 1604.676,949.498 c 105.993,17.395 187.7,70.446 228.55,150.089 49.687,96.867 35.074,218.308 -40.093,333.191 -57.059,87.207 -152.464,176.593 -385.739,92.991 -211.221,-75.688 -197.768,-134.06 -168.298,-261.967 2.91,-12.622 5.985,-25.97 9.021,-40.128 38.482,-179.051 153.527,-286.308 300.252,-279.917 19.412,0.845 38.225,2.774 56.307,5.741 z m -91.591,593.499 c 153.698,25.222 225.269,-46.139 271.049,-116.108 72.992,-111.558 87.403,-229.066 39.528,-322.398 -46.69,-91.022 -144.643,-144.288 -275.761,-149.997 -141.129,-6.143 -251.97,97.865 -289.267,271.438 v 0 c -3.054,14.21 -6.143,27.611 -9.065,40.285 -28.839,125.164 -40.774,176.969 161.451,249.437 37.569,13.456 71.458,22.321 102.065,27.343 z"
   id="path54" />
	
		<radialGradient
   id="SVGID_00000164514738594588832450000006719666578456021409_"
   cx="1319.321"
   cy="749.97583"
   r="1097.0652"
   gradientUnits="userSpaceOnUse">
		<stop
   offset="0"
   style="stop-color:#2BF76A"
   id="stop55" />
		<stop
   offset="0.1509"
   style="stop-color:#2AF06A"
   id="stop56" />
		<stop
   offset="0.3635"
   style="stop-color:#26DE69"
   id="stop57" />
		<stop
   offset="0.6128"
   style="stop-color:#1FC068"
   id="stop58" />
		<stop
   offset="0.8877"
   style="stop-color:#169666"
   id="stop59" />
		<stop
   offset="1"
   style="stop-color:#128365"
   id="stop60" />
	</radialGradient>
	<path
   style="fill:#1c9e7e;fill-opacity:1"
   d="m 1626.778,1034.574 c 89.018,14.608 157.657,59.194 191.988,126.127 41.746,81.388 29.496,183.387 -33.618,279.842 -47.949,73.281 -128.108,148.392 -323.986,78.203 -177.581,-63.63 -166.268,-112.743 -141.47,-220.355 2.433,-10.565 5.005,-21.734 7.552,-33.583 32.322,-150.355 128.983,-240.423 252.279,-235.051 16.297,0.709 32.074,2.323 47.255,4.817 z m -76.751,496.891 c 128.249,21.043 187.95,-38.461 226.127,-96.806 60.935,-93.136 72.983,-191.196 33.048,-269.054 -38.938,-75.911 -120.662,-120.339 -230.142,-125.112 -117.705,-5.123 -210.167,81.694 -241.3,226.572 l -5.259,-1.128 5.259,1.128 c -2.563,11.9 -5.149,23.126 -7.595,33.745 -24.719,107.271 -33.968,147.406 134.619,207.816 31.383,11.245 59.685,18.643 85.243,22.839 z"
   id="path60" />
	
		<radialGradient
   id="SVGID_00000026125935457840474910000006925805375788295843_"
   cx="1319.3184"
   cy="749.97839"
   r="1097.0671"
   gradientUnits="userSpaceOnUse">
		<stop
   offset="0"
   style="stop-color:#2BF76A"
   id="stop61" />
		<stop
   offset="0.1509"
   style="stop-color:#2AF06A"
   id="stop62" />
		<stop
   offset="0.3635"
   style="stop-color:#26DE69"
   id="stop63" />
		<stop
   offset="0.6128"
   style="stop-color:#1FC068"
   id="stop64" />
		<stop
   offset="0.8877"
   style="stop-color:#169666"
   id="stop65" />
		<stop
   offset="1"
   style="stop-color:#128365"
   id="stop66" />
	</radialGradient>
	<path
   style="fill:#1c9e7e;fill-opacity:1"
   d="m 1648.876,1119.646 c 72.048,11.821 127.619,47.937 155.436,102.165 33.806,65.918 23.913,148.471 -27.139,226.498 -35.81,54.736 -101.959,120.864 -262.25,63.416 -143.929,-51.577 -134.75,-91.425 -114.634,-178.736 1.96,-8.51 4.033,-17.504 6.085,-27.047 v 0 c 26.149,-121.664 104.436,-194.538 204.309,-190.189 13.169,0.572 25.921,1.88 38.193,3.893 z m -61.906,400.291 c 102.795,16.87 150.632,-30.782 181.204,-77.512 48.882,-74.704 58.563,-153.327 26.569,-215.706 -31.189,-60.813 -96.727,-96.398 -184.524,-100.23 -94.281,-4.104 -168.363,65.524 -193.331,181.711 -2.065,9.599 -4.147,18.646 -6.125,27.199 -19.758,85.764 -27.151,117.85 107.791,166.207 25.191,9.029 47.906,14.966 68.416,18.331 z"
   id="path66" />
	
		<radialGradient
   id="SVGID_00000095318751359607813560000006654975358206513325_"
   cx="1319.317"
   cy="749.97583"
   r="1097.0698"
   gradientUnits="userSpaceOnUse">
		<stop
   offset="0"
   style="stop-color:#2BF76A"
   id="stop67" />
		<stop
   offset="0.1509"
   style="stop-color:#2AF06A"
   id="stop68" />
		<stop
   offset="0.3635"
   style="stop-color:#26DE69"
   id="stop69" />
		<stop
   offset="0.6128"
   style="stop-color:#1FC068"
   id="stop70" />
		<stop
   offset="0.8877"
   style="stop-color:#169666"
   id="stop71" />
		<stop
   offset="1"
   style="stop-color:#128365"
   id="stop72" />
	</radialGradient>
	<path
   style="fill:#1c9e7e;fill-opacity:1"
   d="m 1670.979,1204.718 c 55.072,9.038 97.571,36.685 118.869,78.203 25.874,50.439 18.34,113.553 -20.659,173.158 -27.409,41.891 -78.006,92.514 -200.497,48.623 -110.294,-39.519 -102.777,-72.144 -87.802,-137.125 1.487,-6.453 3.058,-13.274 4.611,-20.501 19.98,-92.97 79.888,-148.658 156.341,-145.325 10.045,0.434 19.774,1.431 29.137,2.967 z m -47.067,303.69 c 77.351,12.691 113.305,-23.104 136.281,-58.218 36.825,-56.28 44.145,-115.461 20.091,-162.361 -23.446,-45.705 -72.783,-72.45 -138.911,-75.342 -70.861,-3.084 -126.556,49.354 -145.359,136.846 v 0 c -1.566,7.284 -3.15,14.157 -4.646,20.654 -14.805,64.251 -20.344,88.297 80.955,124.596 19.004,6.808 36.128,11.288 51.589,13.825 z"
   id="path72" />
</g>
<radialGradient
   id="SVGID_00000011716298455180217190000011854873013279763604_"
   cx="1563.329"
   cy="812.54077"
   r="1357.8004"
   gradientUnits="userSpaceOnUse"
   gradientTransform="matrix(0.24195808,0,0,0.25001107,-48.327461,-65.852053)">
	<stop
   offset="0"
   style="stop-color:#2BF76A"
   id="stop73" />
	<stop
   offset="0.15090001"
   style="stop-color:#2a9bce;stop-opacity:1;"
   id="stop74" />
	<stop
   offset="0.3635"
   style="stop-color:#26897c;stop-opacity:1;"
   id="stop75" />
	<stop
   offset="0.6128"
   style="stop-color:#1fc0de;stop-opacity:1;"
   id="stop76" />
	<stop
   offset="0.88770002"
   style="stop-color:#16d0cd;stop-opacity:1;"
   id="stop77" />
	<stop
   offset="1"
   style="stop-color:#128365"
   id="stop78" />
</radialGradient>
<path
   style="fill:url(#SVGID_00000011716298455180217190000011854873013279763604_);stroke-width:0.245952"
   d="m 297.61114,3.4412567 c 24.42422,4.14219 46.34925,11.8525303 65.45837,23.0485203 25.57715,14.98292 44.92364,35.42907 57.50231,60.77044 12.88814,25.961153 17.88457,56.400503 14.44853,88.026653 -3.58413,32.99771 -15.79188,66.13643 -36.28138,98.49561 -18.51414,29.23804 -53.39192,70.98414 -95.75684,100.46419 C 246.60178,413.48016 190.59744,423.22259 136.5215,403.19846 37.744529,366.62634 62.661129,290.04945 86.756289,215.99492 c 6.41479,-19.71562 13.04783,-40.10177 16.990051,-59.05411 l 1.27246,0.28201 -1.27246,-0.28201 c 9.8414,-47.31785 29.57841,-87.011603 57.07791,-114.792083 28.97932,-29.2743 65.42571,-43.7979403 105.39719,-41.99961034 10.86948,0.48852 21.34288,1.58907004 31.3897,3.29214004 z M 166.38155,408.47144 c 44.19509,7.49383 89.52304,-4.70546 135.14714,-36.45511 42.04312,-29.2558 76.65716,-70.68763 95.0329,-99.70517 C 436.79874,208.76785 444.70617,141.76738 418.25798,88.487277 396.33294,44.320817 354.01665,15.719057 297.43742,6.1221267 287.42664,4.4245567 276.98059,3.3230067 266.10893,2.8342367 188.10116,-0.67467334 126.86084,58.590697 106.2898,157.50508 c -3.9727,19.10085 -10.631151,39.5605 -17.068201,59.34638 -11.8274,36.35211 -24.06007,73.94302 -21.04116,106.3017 3.37362,36.1631 26.01533,61.51848 69.218641,77.51543 9.59799,3.55341 19.26495,6.15453 28.98247,7.80285 z"
   id="path78" />
<radialGradient
   id="SVGID_00000024694643878236477540000008641538020277385909_"
   cx="1915.4922"
   cy="335.39581"
   r="99.017899"
   gradientUnits="userSpaceOnUse"
   gradientTransform="matrix(0.24195808,0,0,0.25001107,-48.327461,-65.852053)">
	<stop
   offset="0"
   style="stop-color:#2BF76A"
   id="stop79" />
	<stop
   offset="0.1509"
   style="stop-color:#2AF06A"
   id="stop80" />
	<stop
   offset="0.3635"
   style="stop-color:#26DE69"
   id="stop81" />
	<stop
   offset="0.6128"
   style="stop-color:#1FC068"
   id="stop82" />
	<stop
   offset="0.8877"
   style="stop-color:#169666"
   id="stop83" />
	<stop
   offset="1"
   style="stop-color:#128365"
   id="stop84" />
</radialGradient>
<path
   style="fill:url(#SVGID_00000024694643878236477540000008641538020277385909_);stroke-width:0.245952"
   d="m 424.37879,40.063877 c 0,5.25024 -4.11885,9.50617 -9.19997,9.50617 -5.08112,0 -9.20094,-4.25593 -9.20094,-9.50617 0,-5.25123 4.11982,-9.50742 9.20094,-9.50742 5.08112,0 9.19997,4.25594 9.19997,9.50742 z"
   id="path84" />
<radialGradient
   id="SVGID_00000123431750142227943600000017792172535261653387_"
   cx="1724.3279"
   cy="363.21909"
   r="218.8103"
   gradientUnits="userSpaceOnUse"
   gradientTransform="matrix(0.24195808,0,0,0.25001107,-48.327461,-65.852053)">
	<stop
   offset="0"
   style="stop-color:#2BF76A"
   id="stop85" />
	<stop
   offset="0.1509"
   style="stop-color:#2AF06A"
   id="stop86" />
	<stop
   offset="0.3635"
   style="stop-color:#26DE69"
   id="stop87" />
	<stop
   offset="0.6128"
   style="stop-color:#1FC068"
   id="stop88" />
	<stop
   offset="0.8877"
   style="stop-color:#169666"
   id="stop89" />
	<stop
   offset="1"
   style="stop-color:#128365"
   id="stop90" />
</radialGradient>
<path
   style="fill:url(#SVGID_00000123431750142227943600000017792172535261653387_);stroke-width:0.245952"
   d="m 389.30092,73.711117 c 0,11.60202 -9.10368,21.00743 -20.33198,21.00743 -11.22807,0 -20.33174,-9.40566 -20.33174,-21.00743 0,-11.60301 9.10367,-21.00868 20.33174,-21.00868 11.2283,0 20.33198,9.40567 20.33198,21.00868 z"
   id="path90" />
<radialGradient
   id="SVGID_00000018937422739857128810000007920563873629750935_"
   cx="-479.66119"
   cy="1368.6766"
   r="1534.6141"
   gradientUnits="userSpaceOnUse"
   gradientTransform="matrix(0.24195808,0,0,0.25001107,-48.327461,-65.852053)">
	<stop
   offset="0"
   style="stop-color:#2BF76A"
   id="stop91" />
	<stop
   offset="0.1509"
   style="stop-color:#2AF06A"
   id="stop92" />
	<stop
   offset="0.34803608"
   style="stop-color:#268669;stop-opacity:1;"
   id="stop93" />
	<stop
   offset="0.6128"
   style="stop-color:#1fc0cf;stop-opacity:1;"
   id="stop94" />
	<stop
   offset="0.88770002"
   style="stop-color:#20c0b8;stop-opacity:1;"
   id="stop95" />
	<stop
   offset="1"
   style="stop-color:#128365"
   id="stop96" />
</radialGradient>
<path
   style="fill:url(#SVGID_00000018937422739857128810000007920563873629750935_);stroke-width:0.245952"
   d="m 214.94858,204.95268 c 44.6374,1.0423 91.62542,-9.40667 90.45458,40.50029 -1.34746,57.4198 -116.67751,67.81526 -148.06818,106.19995 -31.39068,38.3847 -110.282561,85.51754 -140.990671,26.42717 -19.495531,-37.51616 3.98142,-88.94543 0.0709,-154.32933 -3.04528,-50.9285 -42.82948,-122.41791 13.77419,-138.728643 60.07481,-17.31251 62.86313,117.084693 184.759191,119.930563 z"
   id="path96" />
<radialGradient
   id="SVGID_00000067930125948406609730000012670396532788604589_"
   cx="1281.5275"
   cy="1372.0244"
   r="458.89609"
   gradientTransform="matrix(-0.25270102,0,0,0.25011107,659.60419,187.2296)"
   gradientUnits="userSpaceOnUse">
	<stop
   offset="0"
   style="stop-color:#190078"
   id="stop97" />
	<stop
   offset="0.0021"
   style="stop-color:#1A0179"
   id="stop98" />
	<stop
   offset="0.1237"
   style="stop-color:#4F3C98"
   id="stop99" />
	<stop
   offset="0.2474"
   style="stop-color:#7E70B3"
   id="stop100" />
	<stop
   offset="0.372"
   style="stop-color:#A59CCA"
   id="stop101" />
	<stop
   offset="0.4967"
   style="stop-color:#C6BFDD"
   id="stop102" />
	<stop
   offset="0.6215"
   style="stop-color:#DFDBEC"
   id="stop103" />
	<stop
   offset="0.7467"
   style="stop-color:#F1EFF7"
   id="stop104" />
	<stop
   offset="0.8725"
   style="stop-color:#FBFBFD"
   id="stop105" />
	<stop
   offset="1"
   style="stop-color:#FFFFFF"
   id="stop106" />
</radialGradient>

<radialGradient
   id="SVGID_00000116197285478115721610000015804956712602175106_"
   cx="1379.8224"
   cy="1040.8689"
   r="458.89609"
   gradientTransform="matrix(-0.25270102,0,0,0.25011107,659.60419,187.2296)"
   gradientUnits="userSpaceOnUse">
	<stop
   offset="0"
   style="stop-color:#190078"
   id="stop107" />
	<stop
   offset="0.0021"
   style="stop-color:#1A0179"
   id="stop108" />
	<stop
   offset="0.1237"
   style="stop-color:#4F3C98"
   id="stop109" />
	<stop
   offset="0.2474"
   style="stop-color:#7E70B3"
   id="stop110" />
	<stop
   offset="0.372"
   style="stop-color:#A59CCA"
   id="stop111" />
	<stop
   offset="0.4967"
   style="stop-color:#C6BFDD"
   id="stop112" />
	<stop
   offset="0.6215"
   style="stop-color:#DFDBEC"
   id="stop113" />
	<stop
   offset="0.7467"
   style="stop-color:#F1EFF7"
   id="stop114" />
	<stop
   offset="0.8725"
   style="stop-color:#FBFBFD"
   id="stop115" />
	<stop
   offset="1"
   style="stop-color:#FFFFFF"
   id="stop116" />
</radialGradient>

<radialGradient
   id="SVGID_00000160888090602576307690000012691833744310539171_"
   cx="563.87903"
   cy="1023.296"
   r="229.6235"
   gradientTransform="matrix(-0.25270102,0,0,0.25011107,659.60419,187.2296)"
   gradientUnits="userSpaceOnUse">
	<stop
   offset="0"
   style="stop-color:#190078"
   id="stop117" />
	<stop
   offset="0.0021"
   style="stop-color:#1A0179"
   id="stop118" />
	<stop
   offset="0.1237"
   style="stop-color:#4F3C98"
   id="stop119" />
	<stop
   offset="0.2474"
   style="stop-color:#7E70B3"
   id="stop120" />
	<stop
   offset="0.372"
   style="stop-color:#A59CCA"
   id="stop121" />
	<stop
   offset="0.4967"
   style="stop-color:#C6BFDD"
   id="stop122" />
	<stop
   offset="0.6215"
   style="stop-color:#DFDBEC"
   id="stop123" />
	<stop
   offset="0.7467"
   style="stop-color:#F1EFF7"
   id="stop124" />
	<stop
   offset="0.8725"
   style="stop-color:#FBFBFD"
   id="stop125" />
	<stop
   offset="1"
   style="stop-color:#FFFFFF"
   id="stop126" />
</radialGradient>

<radialGradient
   id="SVGID_00000074427750051418069780000000418253825695785648_"
   cx="335.81381"
   cy="22.417801"
   r="549.61322"
   gradientTransform="matrix(-0.12097904,0.21650959,-0.2095357,-0.12500553,545.70094,336.72598)"
   gradientUnits="userSpaceOnUse">
	<stop
   offset="0"
   style="stop-color:#2BF76A"
   id="stop127" />
	<stop
   offset="0.10837423"
   style="stop-color:#2AF06A"
   id="stop128" />
	<stop
   offset="0.23463403"
   style="stop-color:#26DE69"
   id="stop129" />
	<stop
   offset="0.3635"
   style="stop-color:#1FC068"
   id="stop130" />
	<stop
   offset="0.55522579"
   style="stop-color:#169666"
   id="stop131" />
	<stop
   offset="1"
   style="stop-color:#28acab;stop-opacity:1;"
   id="stop132" />
</radialGradient>
<path
   style="fill:url(#SVGID_00000074427750051418069780000000418253825695785648_);stroke-width:0.245952"
   d="m 372.10568,391.28118 c -24.42543,-14.5714 -32.79451,-46.84282 -18.69223,-72.08219 14.10204,-25.23837 45.33399,-33.88475 69.75966,-19.31436 24.4264,14.57165 32.79427,46.84408 18.69223,72.08244 -14.10156,25.23812 -45.33447,33.88575 -69.75966,19.31411 z"
   id="path132" />
<radialGradient
   id="SVGID_00000174584609811861580700000009639927731373379258_"
   cx="804.52161"
   cy="859.89447"
   r="1477.431"
   gradientTransform="matrix(-0.22330311,0.09622926,0.09312966,0.23073522,340.31452,-199.05042)"
   gradientUnits="userSpaceOnUse">
	<stop
   offset="0"
   style="stop-color:#2b406a;stop-opacity:1;"
   id="stop133" />
	<stop
   offset="0.15090001"
   style="stop-color:#2a94ab;stop-opacity:1;"
   id="stop134" />
	<stop
   offset="0.3635"
   style="stop-color:#26bfab;stop-opacity:1;"
   id="stop135" />
	<stop
   offset="0.6128"
   style="stop-color:#1fc0bc;stop-opacity:1;"
   id="stop136" />
	<stop
   offset="0.88770002"
   style="stop-color:#166452;stop-opacity:1;"
   id="stop137" />
	<stop
   offset="1"
   style="stop-color:#1221a2;stop-opacity:1;"
   id="stop138" />
</radialGradient>

<radialGradient
   id="SVGID_00000181057471880295677820000003986064791230627236_"
   cx="1563.3247"
   cy="812.53943"
   r="1357.8051"
   gradientUnits="userSpaceOnUse"
   gradientTransform="matrix(0.24195808,0,0,0.25001107,-48.327461,-65.852053)">
	<stop
   offset="0"
   style="stop-color:#2BF76A"
   id="stop139" />
	<stop
   offset="0.1509"
   style="stop-color:#2AF06A"
   id="stop140" />
	<stop
   offset="0.3635"
   style="stop-color:#26DE69"
   id="stop141" />
	<stop
   offset="0.6128"
   style="stop-color:#1FC068"
   id="stop142" />
	<stop
   offset="0.8877"
   style="stop-color:#169666"
   id="stop143" />
	<stop
   offset="1"
   style="stop-color:#128365"
   id="stop144" />
</radialGradient>
<path
   style="fill:url(#SVGID_00000181057471880295677820000003986064791230627236_);stroke-width:0.245952"
   d="M 266.22144,0.14886666 266.10917,2.8342367 C 188.1014,-0.67467334 126.86108,58.591697 106.29005,157.50508 c -3.97271,19.10085 -10.631161,39.5605 -17.068211,59.34638 -11.8274,36.35211 -24.06007,73.94302 -21.04116,106.3017 3.37362,36.1631 26.01533,61.51848 69.218641,77.51543 l -0.87758,2.52987 C 37.744769,366.62634 62.661379,290.04945 86.756529,215.99492 93.171319,196.2793 99.804359,175.89315 103.74658,156.94081 113.58799,109.62296 133.32499,69.929207 160.8245,42.148727 189.80357,12.874177 226.24972,-1.6494633 266.22144,0.14886666 Z"
   id="path144" />
<radialGradient
   id="SVGID_00000127039807819382221920000001816134404940188857_"
   cx="287.12329"
   cy="297.3728"
   r="99.017403"
   gradientUnits="userSpaceOnUse"
   gradientTransform="matrix(0.24195808,0,0,0.25001107,-48.327461,-65.852053)">
	<stop
   offset="0"
   style="stop-color:#2BF76A"
   id="stop145" />
	<stop
   offset="0.1509"
   style="stop-color:#2AF06A"
   id="stop146" />
	<stop
   offset="0.3635"
   style="stop-color:#26DE69"
   id="stop147" />
	<stop
   offset="0.6128"
   style="stop-color:#1FC068"
   id="stop148" />
	<stop
   offset="0.8877"
   style="stop-color:#169666"
   id="stop149" />
	<stop
   offset="1"
   style="stop-color:#128365"
   id="stop150" />
</radialGradient>
<path
   style="fill:url(#SVGID_00000127039807819382221920000001816134404940188857_);stroke-width:0.245952"
   d="m 30.381259,30.556457 c 0,5.25023 -4.11885,9.50742 -9.19997,9.50742 -5.08112,0 -9.19997,-4.25719 -9.19997,-9.50742 0,-5.25023 4.11885,-9.50617 9.19997,-9.50617 5.08112,0 9.19997,4.25594 9.19997,9.50617 z"
   id="path150" />
<radialGradient
   id="SVGID_00000152942550093792128650000003244157925254684596_"
   cx="1235.2819"
   cy="1532.9219"
   r="329.35571"
   gradientUnits="userSpaceOnUse"
   gradientTransform="matrix(0.24195808,0,0,0.25001107,-48.327461,-65.852053)">
	<stop
   offset="0"
   style="stop-color:#2BF76A"
   id="stop151" />
	<stop
   offset="0.1509"
   style="stop-color:#2AF06A"
   id="stop152" />
	<stop
   offset="0.3635"
   style="stop-color:#26DE69"
   id="stop153" />
	<stop
   offset="0.6128"
   style="stop-color:#1FC068"
   id="stop154" />
	<stop
   offset="0.8877"
   style="stop-color:#169666"
   id="stop155" />
	<stop
   offset="1"
   style="stop-color:#128365"
   id="stop156" />
</radialGradient>
<ellipse
   style="opacity:0.7;fill:url(#SVGID_00000152942550093792128650000003244157925254684596_);stroke-width:0.245952"
   cx="250.68166"
   cy="390.78036"
   id="circle156"
   rx="30.603102"
   ry="31.621651" />
<ellipse
   style="fill:url(#radialGradient158);stroke-width:21.5563"
   id="path156"
   cx="156.74998"
   cy="286.51633"
   rx="128.45456"
   ry="104.0376" /><ellipse
   style="fill:url(#radialGradient158-0);stroke-width:21.5563"
   id="path156-8"
   cx="288.87842"
   cy="208.68907"
   rx="128.45456"
   ry="104.0376" /><path
   style="fill:url(#SVGID_00000174584609811861580700000009639927731373379258_);stroke-width:0.245952"
   d="m 86.372159,279.01908 c 38.284061,61.3665 195.263081,169.1395 283.916041,84.906 101.055,-96.017 -3.21587,-249.79503 -124.06837,-236.46594 C 201.60978,132.3791 143.89576,23.946297 87.300549,50.881247 40.944769,72.944217 34.432709,195.76566 86.372159,279.01908 Z"
   id="path138" /></svg>
